<svg width="48" height="55" viewBox="0 0 48 55" fill="none" xmlns="http://www.w3.org/2000/svg">
<path d="M40.5752 24.2196C40.3825 24.2196 39.2363 24.8383 39.0496 24.9983C38.1475 24.0174 38.7658 24.3086 37.9362 24.5289C37.5628 24.1155 37.1895 23.699 36.8161 23.2923C36.7272 23.3202 36.6451 23.3557 36.5637 23.3904C36.5966 23.6024 37.3179 25.0858 37.1895 25.2005C36.7347 24.9349 36.2882 24.6716 35.8409 24.4052C35.7692 22.7996 37.3933 22.648 38.0587 21.5622C38.0273 21.5101 38.0019 21.4649 37.9765 21.4219C35.7766 21.068 33.2019 20.3791 31.2372 21.5449C31.1476 22.0745 30.3352 24.5289 30.0514 24.5289C29.8476 24.4505 29.6452 24.372 29.4496 24.3011C29.4914 24.1645 29.8886 24.1902 30.0111 24.1856C29.799 23.3202 29.7505 23.0275 29.0926 22.5348C28.0121 21.2355 27.3707 19.7967 26.5911 18.3669C25.9907 17.3422 25.058 16.3365 24.772 15.3465C24.6675 15.3111 24.5689 15.2764 24.4711 15.2485C24.4323 15.09 24.3994 14.9399 24.3666 14.7897C24.0977 13.166 23.0254 12.3179 24.0977 10.7629C24.0417 10.4113 23.9917 10.0657 23.9446 9.72167C23.5623 9.48249 23.587 9.5006 23.457 9.13013C23.8065 8.84719 24.1956 9.27953 24.4965 9.57228C27.4446 9.96839 25.5285 6.1898 23.8939 8.15832C22.9612 7.75164 24.1956 6.88697 24.0014 5.80198C23.3032 5.5628 22.7514 5.30702 22.157 5.75747C21.5812 6.6576 22.5393 7.17896 22.4811 8.14172C21.7351 8.21189 21.2064 6.90583 20.2244 7.7622C19.2903 10.8957 21.4513 8.88265 22.5878 9.08561C22.6774 9.79334 21.296 9.819 22.4012 11.2579C20.7441 11.7083 19.014 11.7611 17.3659 12.0176C17.3084 12.2033 17.2517 12.3896 17.1949 12.5828C17.2674 12.6273 17.3405 12.6695 17.4227 12.7141C17.4145 12.9253 17.3405 13.1743 17.3659 13.4671L17.5855 13.5704C17.4384 13.8986 17.1546 13.7923 17.5683 14.2412C18.6257 14.4011 20.4178 13.8986 21.5969 13.7749C21.5969 15.7879 16.1965 19.805 18.0074 21.1646C18.3479 20.7594 18.6025 20.1686 18.7003 20.0275C18.8758 19.7748 20.2072 17.6953 20.4268 17.4569C20.4753 17.475 20.5261 17.4924 20.5821 17.5188C20.8002 18.2326 19.7293 20.8733 19.4516 21.8278C19.3231 22.6578 19.282 23.5858 18.8452 24.3614C18.498 24.1117 18.9938 23.9314 18.3964 23.7601C18.7227 22.9852 18.3568 23.2055 19.0633 22.6397C18.9983 21.5366 17.6265 21.0771 16.9268 20.6802C16.9836 19.4164 16.4489 19.3198 15.6522 19.8593C15.7336 19.9204 15.815 19.9906 15.9031 20.0615V20.3007C15.2788 20.7504 14.6045 21.2272 13.9944 21.6248C13.403 21.2355 14.4977 18.8611 14.6359 18.3223C14.5716 16.3093 14.6456 14.7633 12.7369 14.5068C12.5831 14.8086 12.8825 16.0535 12.9318 16.5477C12.1268 17.5354 11.2502 18.1639 12.0626 19.3545C12.1769 20.4674 12.4121 20.6168 13.468 20.9005C13.468 20.9616 13.4754 21.0333 13.4837 21.1027H12.5174C12.5174 21.2008 12.5174 21.3064 12.5256 21.4136C12.7041 21.5101 13.2888 21.3864 13.565 21.3577C13.565 21.4219 13.5651 21.492 13.5725 21.5622C13.353 21.6784 12.7526 21.6158 12.4845 21.6784C12.4532 22.2518 12.3949 22.8079 12.2822 23.373C12.1522 23.5941 11.4212 24.8308 11.283 24.6783C11.9245 23.373 12.3464 22.2518 10.8111 23.7171C9.90979 24.1223 10.1211 23.0011 9.26237 24.3531C8.64408 23.8672 8.66797 23.8054 8.05117 23.8325C7.97799 23.7427 7.90556 23.6567 7.83984 23.5677C7.6203 23.5586 7.40973 23.5586 7.1984 23.5586C7.12447 23.699 7.05055 23.8408 6.98633 23.9917C7.03561 24.1223 7.09162 24.2641 7.14986 24.4052C7.09162 25.8448 8.10045 25.9331 9.16305 26.5601C8.98459 26.754 7.75845 26.0221 7.33654 26.0832C7.28801 26.1798 7.23872 26.2787 7.1984 26.376L7.51502 26.8242C8.14078 26.8785 9.19591 27.9559 9.82168 28.4328C9.71489 29.5804 9.61782 30.7288 9.52074 31.8764C9.57749 31.9096 9.6335 31.9548 9.69921 31.9994C9.60064 32.5207 9.30942 33.448 9.30942 33.9686C9.84557 34.4545 9.33406 34.6749 9.30942 35.584C9.90158 36.2284 9.74028 36.7498 9.7231 37.7397C9.80599 37.8106 9.8956 37.8808 9.98297 37.96C9.99268 38.5153 9.9994 39.0812 10.0166 39.6471C10.1465 39.761 10.2764 39.8757 10.4146 39.9911C10.4303 40.6883 10.487 41.1908 10.6401 41.9333C10.195 42.1717 9.77164 42.0925 9.3012 42.3233L9.4722 42.5346C10.959 42.6138 12.0141 41.8457 13.3858 41.8457C15.6522 43.0733 15.2616 44.1493 17.9745 42.595C19.282 42.4094 19.6323 44.7664 21.4416 43.7878C24.1956 41.4647 23.4974 42.6485 25.8682 44.362C26.1699 44.353 26.4694 44.353 26.7703 44.353C29.1337 42.6772 28.2884 41.9438 30.9027 44.0964C32.1453 44.3092 33.0078 42.595 33.7866 42.595C35.8177 43.3291 36.2224 43.4777 38.3984 42.3384C37.7084 41.4391 37.5531 42.7112 36.9296 42.7112C36.8654 42.3573 36.9468 42.1008 36.9542 41.8095C37.5875 41.2014 38.2214 40.591 38.8547 39.9911V39.9564C38.4485 39.7452 38.043 39.5399 37.6442 39.3377C37.6771 38.6496 37.6032 37.8974 38.09 37.4749C37.6442 35.0204 37.8234 32.3449 37.9862 29.8905C38.1557 29.6242 38.3267 29.3601 38.497 29.1035C39.1795 28.2826 40.048 28.0706 40.7536 27.2595L40.5752 27.0105C39.8695 27.1622 39.4789 27.3108 38.886 27.6292C38.609 26.9245 41.8819 27.1992 40.5752 24.2196ZM18.0544 20.3912L18.0903 20.8424C18.0664 20.8424 18.0432 20.8424 18.0171 20.8537C17.7512 20.6183 17.8005 20.5776 17.8222 20.352C17.9207 20.3391 17.9207 20.3391 18.0544 20.3912ZM18.3419 20.3369C18.0664 20.226 18.0298 19.9536 17.9641 19.7876C18.0029 19.7348 18.0425 19.694 18.0791 19.6518C18.5346 19.7469 18.3419 20.3369 18.3419 20.3369ZM18.5674 19.141C18.6936 19.4217 18.7272 19.4949 18.7093 19.9574C18.4338 19.5582 18.4255 19.522 18.4009 19.141H18.5674ZM18.8056 18.5834C18.8788 18.7252 18.9632 18.8837 19.0535 19.0429C18.9774 19.3266 18.9774 19.3266 18.952 19.3138C18.8168 19.1229 18.7011 18.9463 18.5861 18.7728L18.8056 18.5834ZM19.1424 18.0583C19.2843 18.2227 19.5046 18.3759 19.4799 18.766C19.4209 18.7924 19.3649 18.8301 19.3179 18.8686C19.2014 18.6536 19.0842 18.4363 18.9699 18.2341C19.0282 18.1737 19.0842 18.1096 19.1424 18.0583ZM19.7652 17.7821C19.7652 17.9074 19.7652 18.0326 19.7756 18.1579C19.7129 18.1926 19.6502 18.2386 19.5867 18.2831C19.3358 17.8613 19.3866 17.8832 19.3664 17.5316C19.6293 17.5316 19.5427 17.721 19.7652 17.7821ZM20.1385 17.715C20.0915 17.7663 20.034 17.8425 19.9765 17.8425L19.7338 17.2781C19.7585 17.2283 19.7809 17.1913 19.8137 17.1506C20.0452 17.1913 20.0788 17.3271 20.1385 17.715ZM20.2737 17.1559C20.1445 16.9272 20.1273 16.8299 20.1199 16.6436C20.1587 16.5998 20.1998 16.5553 20.2483 16.5115C20.4178 16.6368 20.3454 17.2366 20.2737 17.1559ZM33.9987 42.2864C34.0457 42.2071 34.1032 42.1362 34.16 42.0661C35.1822 42.2864 35.5817 42.1717 36.6533 41.8985C36.6451 42.1551 36.6376 42.4199 36.6376 42.6847L35.289 42.7632C34.039 42.3233 34.039 42.3233 33.9987 42.2864ZM28.9956 36.2646C28.5565 35.6995 26.998 34.0222 26.998 33.3333C27.8351 32.935 28.5893 34.1641 29.1255 34.816C30.3919 36.1311 32.0475 36.9278 33.6723 37.7736C38.09 39.9459 38.09 39.9459 38.1557 39.9994C37.1409 41.3855 36.6294 41.731 35.0852 41.9499C31.8294 41.1569 30.8952 39.0457 28.9956 36.2646ZM33.8023 27.6821C34.257 27.9303 35.1106 27.974 35.7766 28.3007C35.7109 28.4509 35.6056 28.8025 35.4914 28.9277C34.5744 28.4856 33.6895 27.8413 33.0966 27.0475C33.3572 26.6816 33.9964 26.7329 34.4206 26.6853C34.4206 26.7019 34.4206 26.7193 34.428 26.7457C34.9567 26.6303 35.0777 26.4032 35.4914 26.754L35.2965 27.0475C34.6961 27.0475 33.7224 26.8521 33.3229 27.2852C34.1518 27.2935 34.8268 27.3561 35.7191 27.55C35.5332 28.168 34.1443 27.584 33.8105 27.4972C33.8023 27.5591 33.8023 27.6209 33.8023 27.6821ZM35.4832 25.254C35.5653 25.4487 36.321 27.7085 35.9462 27.304C35.5885 26.4182 35.0695 25.9867 35.4832 25.254ZM33.9733 26.4281C33.9561 26.4032 33.9419 26.3843 33.9322 26.3654C34.257 26.0568 34.4534 25.9421 34.8671 25.7467C34.9239 25.8358 34.9881 25.9248 35.0538 26.0131C34.9 26.2945 34.2414 26.3843 33.9733 26.4281ZM22.4168 15.5571C22.384 15.6197 22.3511 15.6831 22.2944 15.7095C22.2145 15.6461 22.1331 15.594 22.0517 15.5412C22.0763 15.4861 22.1002 15.4348 22.1331 15.3903C22.2145 15.3994 22.2884 15.4439 22.4168 15.5571ZM22.4094 14.8259C22.3608 14.8523 22.3198 14.8788 22.2794 14.9044L22.0591 14.7716V14.7022C22.1973 14.5868 22.157 14.5868 22.4168 14.7377C22.4094 14.7633 22.4094 14.7897 22.4094 14.8259ZM20.8995 17.6772C20.9151 17.6425 20.9383 17.6071 20.9637 17.5807C21.0682 17.632 21.1735 17.6953 21.2803 17.7572C21.2803 17.8447 21.2064 17.9074 21.1265 17.9074C21.0197 17.8274 20.9151 17.7127 20.8995 17.6772ZM21.2945 18.5834C21.2549 18.5932 21.2109 18.6166 21.1817 18.6392C21.0175 18.4612 20.8532 18.2824 20.6889 18.1164C20.8845 17.9036 21.2034 18.2393 21.2945 18.5834ZM20.9637 17.2713C20.9637 17.2185 20.9637 17.2185 21.0451 17.0329C21.1653 17.1031 21.4184 17.1559 21.3946 17.4305C21.3617 17.4486 21.3288 17.466 21.3035 17.4924C21.1907 17.4124 21.0764 17.3422 20.9637 17.2713ZM21.9792 19.178C21.9703 19.2753 21.9621 19.3726 21.9621 19.4692C21.9546 19.4692 21.9449 19.4798 21.9374 19.4866C21.6611 19.3281 21.5558 19.1161 21.4259 19.0278V19.6209C21.6298 19.682 21.865 19.5929 21.8404 20.0441C21.8165 20.0615 21.7926 20.0796 21.7679 20.1053L21.346 19.7272C20.8741 21.3864 20.5978 23.3202 20.6792 25.1129C21.0511 24.8308 21.0511 24.8745 21.5484 24.9613C21.6783 24.0076 21.7679 22.9852 22.0591 22.1628C22.3026 22.9573 22.0928 24 21.986 24.9009C21.2064 25.0858 20.7688 25.325 20.1273 25.58C19.7704 26.3579 19.5583 26.7374 19.6151 27.848C19.7039 27.8669 19.7936 27.8933 19.8832 27.9205V28.0269C19.5255 28.0706 19.4687 28.38 19.356 28.7233H19.3313C19.3059 28.7233 19.3717 27.6647 19.3619 27.5674C18.5831 25.7128 20.314 23.0463 20.6702 21.2989C20.7031 20.7322 20.9637 19.0467 21.3527 18.809C21.5558 18.9312 21.7679 19.055 21.9792 19.178ZM18.9326 30.5522H19.1506C19.2977 29.8007 19.4456 29.3239 19.7607 28.6795C19.9563 28.6901 20.1512 28.6984 20.3551 28.7157C20.2409 29.686 20.2409 31.2056 19.0954 31.4886C18.2598 31.3361 18.6817 28.2645 18.8273 27.9906C18.9079 28.0435 18.9908 28.1053 19.0797 28.168C19.0797 28.9179 18.9736 29.7139 18.9326 30.5522ZM19.0065 27.4874C18.9736 27.541 18.9251 27.6028 18.884 27.6209C18.486 27.4791 18.2426 27.2935 17.9842 27.0996C17.9842 27.0543 17.9842 27.0105 17.9917 26.9653C18.3651 26.9917 18.6899 27.0543 19.0065 27.4874ZM18.7056 26.4726C18.6331 26.4182 18.5674 26.3654 18.5032 26.3209C18.5032 26.2787 18.5032 26.2341 18.5107 26.1979C18.5435 26.2168 18.7302 26.2787 18.7944 26.4182C18.7631 26.4364 18.7302 26.4545 18.7056 26.4726ZM17.2845 26.7985L17.3084 26.9494C17.3502 26.914 17.3898 26.8875 17.4301 26.8611C17.8132 27.3199 17.8289 28.3355 17.0239 28.3355C15.5536 28.0005 16.0659 26.9841 17.2845 26.7985ZM16.1226 26.7019C15.5782 26.5601 15.3931 26.1632 16.1883 26.1632C16.3093 26.3918 16.5132 26.5956 16.1226 26.7019ZM17.5683 26.5691C17.6579 26.4809 17.7565 26.4032 17.852 26.3209C17.9745 26.4032 18.0231 26.3654 18.1127 26.6303C17.9999 26.7193 17.8618 26.7276 17.796 26.7457C17.5855 26.6046 17.5855 26.6046 17.5683 26.5691ZM17.8618 25.7392C17.9588 25.6766 18.0559 25.617 18.1612 25.5634C18.2269 25.6871 18.2269 25.6871 18.268 25.8448C18.2351 25.8901 18.2097 25.9421 18.1843 25.9957H18.153C18.0641 25.9776 17.9745 25.9595 17.8864 25.9512L17.8618 25.7392ZM18.1298 27.5055C18.2097 27.55 18.2993 27.5938 18.3904 27.6368C18.3904 27.6556 18.2194 29.0243 18.1216 28.9179C17.6908 28.008 17.7064 28.3702 18.1298 27.5055ZM21.7351 26.4364C21.7351 26.7374 21.0764 26.8875 20.8584 26.9396L20.7613 26.8611C21.1175 26.5956 21.2631 26.5435 21.7351 26.4364ZM21.4588 26.2606C21.3206 26.2945 20.9152 26.4462 20.8412 26.4182C20.8255 26.3843 20.8084 26.3473 20.7927 26.3209C21.0764 26.1715 21.1653 26.0221 21.5327 26.0478L21.4588 26.2606ZM21.5484 27.1622C21.3774 27.3742 21.0608 27.5319 20.833 27.5319L20.7613 27.4263C20.9965 27.2407 21.2146 26.914 21.5484 27.1622ZM20.7785 27.8767C20.8412 27.885 20.9069 27.9114 21.0451 28.008C21.0279 28.008 21.0122 28.008 21.004 28.0171L20.7613 27.9114C20.7613 27.8933 20.7688 27.885 20.7785 27.8767ZM21.1422 28.5754C21.1011 28.6192 21.0682 28.6448 21.0197 28.6448C20.9301 28.5814 20.8487 28.5301 20.7688 28.4773V28.3355C20.9383 28.2125 21.004 28.3702 21.1422 28.5754ZM20.9069 29.0409C20.8741 29.0681 20.8412 29.0952 20.8158 29.1217C20.7516 29.0681 20.6956 29.0153 20.6389 28.9617C20.6389 28.9179 20.6389 28.8832 20.6463 28.847C20.7285 28.9096 20.8158 28.9708 20.9069 29.0409ZM20.5731 29.2265C21.0451 29.4318 20.8255 29.7222 20.8002 29.6958C20.5089 29.4921 20.4111 29.465 20.5731 29.2265ZM20.8815 30.2595C20.8659 30.2949 20.8487 30.3402 20.833 30.384C20.7516 30.3658 20.6702 30.3492 20.5978 30.3402C20.5664 30.2693 20.5403 30.2074 20.5164 30.1463C20.6545 30.049 20.7128 30.1025 20.8815 30.2595ZM20.4835 28.097C20.4679 28.097 20.4522 28.097 20.435 28.1053C20.3865 28.0706 20.3379 28.0352 20.2969 28.008C20.2969 27.8669 20.3454 27.8669 20.3939 27.7703C20.2812 27.762 20.1669 27.7522 20.0616 27.7522C19.7838 26.8347 19.9392 26.4809 20.1744 25.6245C20.7285 25.4381 21.2564 25.245 21.8904 25.245C21.9061 25.2623 21.9217 25.2887 21.9374 25.3151C21.3946 26.2055 20.3782 25.457 20.4835 26.8785C20.4111 27.2852 20.1445 27.3742 20.5261 27.6292C20.5336 27.7801 20.5903 27.8933 20.4835 28.097ZM20.3551 28.3438L20.3782 28.4931C20.3379 28.5301 20.3051 28.5641 20.2737 28.6086C20.2244 28.5301 20.1841 28.4509 20.1445 28.3702L20.3551 28.3438ZM20.7785 31.4169C20.7785 31.4622 20.7785 31.5135 20.7845 31.567C20.7441 31.6032 20.7441 31.6032 20.6956 31.6032C20.4835 31.4961 20.4178 31.3648 20.3297 31.2396C20.3379 31.1875 20.3454 31.1437 20.3551 31.0985C20.5575 31.1437 20.5575 31.2841 20.7785 31.4169ZM20.7188 32.0258L20.6956 32.2197C20.6545 32.2114 20.6135 32.2114 20.5731 32.2114C20.3379 32.1774 20.3865 32.0348 20.3297 31.9284C20.4835 31.7172 20.4835 31.7964 20.7188 32.0258ZM20.6292 32.9259C20.3626 32.7599 20.046 32.5479 20.046 32.2921C20.258 32.2921 20.6702 32.5479 20.6292 32.9259ZM20.435 33.4563C20.3551 33.448 20.2737 33.448 20.1923 33.448C20.1356 33.3862 20.0788 33.325 20.0288 33.2632C20.0698 33.1907 20.1445 33.1047 20.2072 33.0602C20.3297 33.1734 20.4111 33.1832 20.435 33.4563ZM14.2311 31.9654C14.1983 31.9654 14.1654 31.9654 14.1326 31.973C12.7937 31.7345 12.2665 29.1481 12.9565 28.168C14.0766 27.0369 14.727 30.9853 14.2311 31.9654ZM13.0461 27.4791C13.005 27.3901 12.9647 27.304 12.9236 27.2226C12.9647 27.1622 13.0132 27.1071 13.0618 27.0543C13.0774 27.0996 13.1745 27.6209 13.0461 27.4791ZM12.7765 27.8413C12.7212 27.6994 12.663 27.5674 12.6145 27.4346C12.7212 27.3372 12.7212 27.3372 12.7526 27.3372C12.8594 27.4519 12.8654 27.9378 12.7765 27.8413ZM17.852 34.8077C17.7565 35.0996 17.5855 36.3612 17.2435 36.3612C15.6193 35.8934 14.0198 34.8416 12.6959 33.8894C13.0132 33.4043 13.3216 32.9976 13.695 32.5735C14.0601 32.5735 17.2674 34.1007 17.852 34.8077ZM11.9812 33.9958C13.2716 34.6847 14.5888 35.5939 15.977 36.3702C15.9434 36.6894 15.8478 37.0244 15.7261 37.3685C15.7022 37.3685 15.6753 37.3685 15.6604 37.3768C14.1497 36.7166 12.7526 36.1047 11.4451 35.2219C11.4451 34.7292 11.7617 34.3399 11.9812 33.9958ZM11.0874 34.9487C10.487 34.3919 10.195 34.1452 9.87843 33.4744C10.1308 33.0949 10.0494 32.7856 10.2279 32.4242C10.7641 32.778 11.1942 33.0859 11.7132 33.5974C11.7132 33.8985 11.0964 34.9487 11.0874 34.9487ZM12.8825 37.0055C13.7517 36.5377 16.4878 38.0302 17.6751 38.4187C18.1941 38.6308 18.0559 38.7545 17.8035 39.2842H17.7565C16.7969 38.9401 13.4269 38.1901 12.8825 37.0055ZM15.8642 39.171C15.8642 39.3913 15.6753 40.2469 15.3602 40.2469C14.1983 39.9376 13.0461 39.2842 12.094 38.6753C12.094 38.3584 12.2321 37.8974 12.3636 37.6763C13.5651 38.0913 14.6284 38.5334 15.8642 39.171ZM21.7269 41.9174C21.694 41.9174 21.6694 41.9242 21.6455 41.9333C19.7704 41.5809 17.8364 41.1123 16.0741 40.5638C16.0913 40.1768 16.1637 39.8418 16.2697 39.5143C17.0725 39.5143 18.3964 40.096 19.2507 40.3337C20.3551 40.4763 22.425 40.0085 21.7269 41.9174ZM18.486 39.5399C18.3725 39.2932 18.4464 38.8699 18.4621 38.6926C20.3708 38.6926 22.3026 39.1868 24.3098 39.2412C24.4554 39.2585 24.5936 39.2585 24.7802 39.3913C24.7802 39.6471 24.7802 39.9112 24.79 40.1768C24.6018 40.2107 24.4151 40.256 24.2284 40.3005C22.3437 40.1594 20.217 40.2039 18.486 39.5399ZM21.7194 37.5277C21.7269 37.8106 21.7597 38.135 21.7269 38.5153C21.7022 38.5078 21.6783 38.5078 21.6552 38.5078C19.6808 38.384 18.0231 37.9781 16.1473 37.4839C16.1965 37.0508 16.2779 36.7943 16.4079 36.4593C18.1784 36.9097 19.9003 37.1746 21.7194 37.5277ZM17.9178 36.4849C17.9178 35.9477 18.153 35.3117 18.4054 34.8786C19.9563 34.9404 21.6694 35.0996 23.2703 35.329C23.4817 35.443 23.3107 37.2191 23.295 37.201C21.5327 37.0138 19.4941 37.0863 17.9178 36.4849ZM26.786 37.8559C26.827 38.1026 26.8345 38.4014 26.8031 38.6926C26.4223 38.6836 26.0467 38.6836 25.6741 38.6836C24.6421 38.6836 22.9044 38.8435 22.036 38.5334L22.0591 37.5277C23.3032 37.5277 25.6741 37.3073 26.786 37.8559ZM31.0334 39.8863C29.628 40.3186 27.0466 40.4491 25.633 40.4491C24.9923 40.2379 25.1865 39.8055 25.2021 39.2231C26.7778 39.0367 28.4258 39.1265 30.0597 39.1778V38.8066C29.2308 38.8066 27.2168 39.3023 27.2168 38.0747C27.3961 37.9517 27.6231 38.0302 27.8822 38.0573C27.8254 38.1539 27.7694 38.2512 27.7201 38.3584C27.7612 38.4187 27.8097 38.4814 27.8583 38.5515C28.0367 38.5515 28.216 38.5515 28.3944 38.5606L28.3466 38.0747C28.2473 38.0573 28.1577 38.0392 28.0704 38.0302C30.0432 37.714 29.799 37.8974 31.0334 39.8863ZM28.8806 37.2274L28.2339 37.087C28.0778 36.614 27.7627 35.9296 28.0046 35.9115C28.104 35.904 28.8574 36.8131 28.956 37.1293C28.9298 37.1564 28.9059 37.1919 28.8806 37.2274ZM23.9506 35.584C25.1454 35.584 26.323 35.443 27.5573 35.7614C27.5671 36.1944 27.5745 36.6343 27.5902 37.0765C27.3789 37.1119 27.1683 37.1564 26.9644 37.201C25.9011 37.1293 24.8542 37.1564 23.8461 37.0335C23.8461 36.5747 23.799 35.8587 23.9506 35.584ZM25.4053 28.1378V28.0774C25.7137 27.9144 25.7137 27.9635 26.1378 28.2615V28.3249L26.0004 28.4351C25.6696 28.3724 25.5531 28.2736 25.4053 28.1378ZM25.518 28.586C25.7189 28.6478 25.9205 28.7187 26.1348 28.7927C26.1221 28.878 26.1221 28.9775 26.1221 29.0734C26.0676 29.0628 26.0116 29.0628 25.9556 29.0628C25.6547 29.0123 25.4292 28.8063 25.518 28.586ZM25.3926 27.5787C25.6591 27.5787 25.7473 27.5123 26.0534 27.7469C25.987 27.8028 25.9384 27.8571 25.8869 27.9092C25.6345 27.8028 25.468 27.6911 25.3926 27.5787ZM25.3776 27.2248L25.2604 26.9698C25.5068 26.8936 25.701 27.0415 26.0064 27.1939V27.3523C25.9758 27.3523 25.9451 27.3636 25.9168 27.3735C25.7316 27.3206 25.5561 27.2663 25.3776 27.2248ZM25.2104 26.5239C25.1984 26.4447 25.1984 26.3783 25.1984 26.3119C25.4284 26.2726 25.5852 26.4054 25.8175 26.6167C25.745 26.6687 25.6838 26.7351 25.6203 26.8015C25.4777 26.7087 25.3433 26.6167 25.2104 26.5239ZM25.126 26.0153C25.126 25.9354 25.126 25.8576 25.1379 25.7912C25.3657 25.8576 25.5942 25.924 25.8309 25.9919C25.7062 26.1051 25.4979 26.1278 25.418 26.1398C25.3119 26.0946 25.2193 26.0478 25.126 26.0153ZM25.0655 25.4117C24.9669 25.076 25.4389 25.3506 25.5688 25.4034C25.5688 25.4381 25.577 25.6064 25.5113 25.5717C25.3575 25.5196 25.2119 25.4661 25.0655 25.4117ZM24.9968 24.83C25.1387 24.7742 25.3717 24.575 25.6046 24.7621V24.8851L25.4516 24.9832C25.2596 24.9734 25.0655 24.9394 24.9968 24.83ZM24.9871 24.1404C25.1245 24.1404 25.2596 24.1509 25.3978 24.16C25.4306 24.2264 25.465 24.289 25.5001 24.3637C25.4568 24.4014 25.4142 24.4482 25.3717 24.4942L25.0894 24.4377C25.0565 24.3365 25.0222 24.2347 24.9871 24.1404ZM24.7422 23.7729V23.6115C24.9498 23.6605 25.1596 23.7118 25.3784 23.7729C25.2865 23.8748 25.2619 23.9118 25.17 23.9118C25.0214 23.862 24.8825 23.8122 24.7422 23.7729ZM24.5293 23.0539C24.557 23.0124 24.5824 22.9686 24.6077 22.9392C24.7937 23.0826 24.9759 23.2395 25.1611 23.3972C25.1208 23.4379 25.0827 23.4832 25.055 23.5413H24.9916C24.6488 23.3972 24.6488 23.2395 24.5293 23.0539ZM25.0244 22.9384C24.8736 22.8275 24.7235 22.7106 24.5846 22.6095L24.9677 22.5348L25.188 22.7362C25.188 22.8758 25.0819 22.9271 25.0244 22.9384ZM24.4367 22.2488C24.4367 22.0881 24.4793 22.113 24.5219 22.021C24.7115 22.113 24.902 22.2051 25.0909 22.3077C24.9744 22.4337 24.8489 22.3982 24.7325 22.4118C24.6279 22.3537 24.5323 22.2964 24.4367 22.2488ZM24.3337 21.7916C24.3188 21.7267 24.3038 21.6626 24.3038 21.6113C24.4711 21.6113 24.6518 21.6113 24.834 21.6286C24.8654 21.6927 24.8945 21.7591 24.9244 21.8429C24.8945 21.8429 24.8654 21.8429 24.834 21.8595C24.6667 21.8255 24.5002 21.8089 24.3337 21.7916ZM24.1687 21.2642C24.3897 21.188 24.5585 21.1284 24.8228 21.3087C24.7257 21.4166 24.669 21.4302 24.5853 21.4475L24.1687 21.2642ZM24.1224 20.684C24.2941 20.4983 24.5137 20.6953 24.7556 20.8681C24.7183 20.9073 24.6832 20.948 24.6473 21.0016C24.5368 20.9888 24.4285 20.9888 24.33 20.9888C24.2545 20.8816 24.1836 20.7753 24.1224 20.684ZM24.5211 18.9131C24.7802 19.2753 25.1297 20.6093 25.4874 20.8288C25.5927 21.9862 26.3723 22.9407 26.6979 24.1411C26.438 24.2905 25.9422 24.7591 25.7712 24.7938C25.5031 24.5025 24.5936 19.611 24.5211 18.9131ZM26.8517 25.9595C26.8517 26.2606 26.5679 26.376 26.3469 26.551C26.3469 26.8242 26.3073 27.1441 26.2341 27.4708C26.2102 27.4708 26.1931 27.4791 26.1774 27.4874C26.1527 27.4791 26.1274 27.4708 26.1117 27.461C26.0878 27.04 25.7936 25.9105 26.0377 25.6434C26.3387 25.6947 26.5179 25.7392 26.8517 25.9595ZM26.1371 25.2706C26.1274 25.2005 26.1214 25.1303 26.1214 25.0684C26.7061 25.1212 27.0623 25.457 27.5745 25.8976C27.5417 25.9331 27.5088 25.9701 27.4603 25.9701C27.013 25.7324 26.5754 25.5015 26.1371 25.2706ZM26.2774 29.434C26.258 29.4899 26.152 29.5691 26.0908 29.594C25.6875 29.5359 25.739 29.434 25.574 29.1541C25.8727 29.1775 25.9466 29.1639 26.2774 29.434ZM26.0377 29.8369C26.1117 29.8973 26.1931 29.9607 26.2745 30.0225C26.2416 30.0761 26.2102 30.1282 26.1774 30.19H25.8682C25.8122 30.1206 25.7637 30.049 25.7144 29.9863C25.8197 29.9343 25.9265 29.8792 26.0377 29.8369ZM26.3969 30.5688C26.3969 30.6231 26.2745 30.8623 26.2341 30.8435C25.9817 30.7363 25.9347 30.6231 25.8279 30.4813C26.0646 30.4458 26.1117 30.4187 26.3969 30.5688ZM26.5022 31.1166C26.494 31.1339 26.4865 31.152 26.4768 31.1785H26.4223C26.2998 31.1437 26.1774 31.109 26.0549 31.0819C26.2028 30.9853 26.3073 30.94 26.5022 31.1166ZM26.5351 31.6115C26.5179 31.6817 26.4694 31.8681 26.4223 31.8417C26.2827 31.7873 26.1445 31.7451 26.0146 31.6998C26.0064 31.6463 26.0064 31.5934 26.0064 31.5399C26.1117 31.4252 26.3895 31.3988 26.5351 31.6115ZM26.0549 31.9994C26.1214 31.9994 26.1774 31.973 26.3155 32.0891V32.1329C26.2498 32.1774 26.1871 32.1933 26.1371 32.1933C26.1035 32.185 26.0721 32.1774 26.0467 32.1774C26.0467 32.1148 26.0467 32.0514 26.0549 31.9994ZM27.4603 32.5826C27.3707 32.7146 25.8436 33.6947 25.8279 33.6857C25.7054 33.4827 25.583 33.2805 25.4702 33.0859C26.0549 32.7327 26.7703 32.0514 27.4603 32.5826ZM25.4702 33.448C25.4784 33.5106 25.4874 33.5718 25.5031 33.6344C25.3246 33.8811 25.3246 33.8811 25.3089 33.8721C25.2119 33.8185 25.1125 33.7755 25.0155 33.731C25.0483 33.3507 25.1051 33.3688 25.4702 33.448ZM26.7061 33.8011C26.9331 34.1105 27.0384 34.3044 27.2094 34.7631C26.665 34.9314 26.2259 34.9669 25.7054 34.9752C25.2432 34.9578 24.8131 34.8974 24.4397 34.8077L24.4636 30.9853C24.3897 29.4831 23.4974 20.4418 23.8879 20.017C23.9775 20.2207 24.4554 19.9996 24.545 20.3007C24.5211 20.3361 24.4965 20.3701 24.4711 20.4154C24.203 20.2743 24.1157 20.3007 23.8804 20.3007C24.026 21.8897 24.5861 23.2923 24.6914 25.0066C24.7392 25.4298 24.9595 25.589 24.8699 26.1715C24.9102 26.2341 24.9595 26.2945 25.008 26.3579C24.5936 27.9378 26.6889 31.0985 25.4135 32.7599C25.2021 32.935 24.9923 33.1123 24.79 33.2881C24.79 33.5529 24.79 33.8185 24.7959 34.0833C25.8526 34.4809 25.6823 33.943 26.7061 33.8011ZM24.2105 17.6486C24.1821 17.6214 24.0193 17.6923 23.9947 17.7059C23.9163 17.6765 23.6893 17.5678 23.6273 17.5407C23.6893 17.4705 23.9013 17.352 24.2105 17.6486ZM23.8879 17.1823C23.8349 17.1536 23.6355 17.0804 23.6355 17.0246C23.814 16.8654 23.7654 16.8473 24.0014 17.0585C23.9775 17.103 23.9208 17.1732 23.8879 17.1823ZM20.8315 23.7458C20.998 23.5647 21.3184 23.696 21.517 23.914C21.4849 23.9616 21.461 24.0219 21.4401 24.0823H21.1623C21.0533 23.9865 20.9428 23.9019 20.8315 23.8182V23.7458ZM21.4207 24.5818C21.4207 24.5938 21.4207 24.6052 21.4319 24.6187C21.3744 24.6565 21.3191 24.7047 21.2721 24.7568L20.7882 24.4565C20.777 24.3554 20.777 24.3554 20.8128 24.2935C21.0085 24.3818 21.2146 24.4822 21.4207 24.5818ZM21.467 23.6907C21.1175 23.5043 20.9152 23.3202 21.1265 23.0373C21.2064 23.0901 21.8404 23.4259 21.467 23.6907ZM20.8718 22.5152C21.0675 22.3024 21.4028 22.5982 21.6634 22.8109C21.6507 22.8539 21.638 22.8954 21.638 22.949C21.5857 22.949 21.5327 22.9648 21.4827 22.9777C21.1451 22.9083 21.0272 22.6706 20.8718 22.5152ZM21.2482 21.8021C21.4043 21.9696 22.0711 22.8102 21.579 22.5446C21.4722 22.4676 20.8084 21.8021 21.2482 21.8021ZM21.5446 21.9048C21.3415 21.5886 21.3512 21.5637 21.3744 21.2996C21.5334 21.403 21.7478 21.603 21.7478 21.9319C21.6783 21.9183 21.6059 21.9048 21.5446 21.9048ZM21.2975 20.988C21.3445 20.9314 21.396 20.8756 21.4483 20.8341C21.6021 20.9465 21.7552 21.0567 21.9217 21.1827C21.9217 21.2121 21.8471 21.3781 21.8075 21.3894C21.629 21.2521 21.461 21.1133 21.2975 20.988ZM21.3505 20.3829C21.3856 20.3037 21.4237 20.2365 21.4722 20.1724C21.629 20.2509 21.7881 20.3286 21.9568 20.4078C21.9688 20.4727 21.9083 20.8054 21.8822 20.7888C21.6992 20.6447 21.5193 20.5142 21.3505 20.3829ZM22.0763 21.0514C22.204 21.3094 22.2712 21.7026 22.0763 21.9168C22.0674 21.9063 22.0591 21.8987 22.0591 21.8897C22.045 21.8331 21.8262 21.0514 22.0763 21.0514ZM22.5878 22.3748C22.9455 22.4284 23.2703 22.4639 23.684 22.648C23.6766 22.7113 23.6766 22.7732 23.6766 22.8343C23.4645 22.8517 23.2547 22.8773 23.0508 22.9037C22.8798 22.8864 22.7103 22.8698 22.5393 22.8592C22.3914 22.577 22.4811 22.5695 22.5878 22.3748ZM23.7483 23.4342C23.814 26.2606 24.0492 29.1375 23.9506 32.0099C23.911 32.0959 23.8707 32.185 23.8379 32.2733C23.4817 32.3962 23.0351 32.3344 22.7006 32.3525C22.5139 32.3004 22.3354 32.2484 22.157 32.2038C22.2458 29.2371 22.3437 26.2689 22.4407 23.3021C22.9216 23.2848 23.1882 23.2667 23.7483 23.4342ZM24.3494 17.9919C24.3359 18.0726 24.3225 18.1503 24.3225 18.231C24.2807 18.231 24.2366 18.231 24.1926 18.2401C24.0253 18.1503 23.855 18.0635 23.696 17.9753C23.74 17.93 23.7804 17.887 23.8386 17.8425C24.1478 17.8425 24.2762 17.9647 24.3494 17.9919ZM24.4285 18.6506C24.3703 18.7177 24.1291 18.7517 24.0343 18.7517C23.9969 18.6973 23.802 18.6589 23.7766 18.6189C23.8483 18.5683 24.1821 18.4619 24.3143 18.4619L24.4285 18.6506ZM23.929 19.1523C23.9775 19.1266 24.026 19.0995 24.0806 19.0821C24.1799 19.1697 24.2844 19.2579 24.3897 19.3545C24.3501 19.39 24.3098 19.4345 24.2687 19.4798C24.0574 19.4526 23.8707 19.3545 23.929 19.1523ZM24.5211 19.8057C24.5054 19.9098 24.2949 20.0004 24.2605 20.0004C24.1478 19.9302 24.0343 19.8578 23.9342 19.8057C23.9842 19.7182 24.0343 19.6465 24.097 19.5756C24.2292 19.6465 24.3763 19.7182 24.5211 19.8057ZM22.1727 33.2707C22.0188 33.1304 22.0278 33.1213 22.0442 33.0157C22.425 32.901 23.8633 32.5562 23.9678 33.1575C23.3749 33.1734 22.6774 33.2707 22.1727 33.2707ZM21.5782 18.259C21.6387 18.259 21.865 18.4755 21.986 18.5796C21.986 18.6656 21.986 18.7501 21.9964 18.846C21.9695 18.8347 21.9419 18.8347 21.9255 18.8347C21.7694 18.8347 21.5865 18.2876 21.5782 18.259ZM21.6051 17.7776C21.744 17.6267 21.7858 17.7202 22.0397 17.8425L22.0905 18.2492C22.0733 18.2492 22.0651 18.259 22.0569 18.2688C21.632 17.8334 21.632 17.8334 21.6051 17.7776ZM22.2309 17.4931C22.1958 17.4931 22.1607 17.4931 22.1256 17.5022C21.986 17.3701 21.8486 17.2381 21.7171 17.1068C21.7171 16.879 22.1906 17.143 22.2309 17.4931ZM21.7836 15.6197H21.7351C21.7194 15.6114 21.7022 15.6016 21.694 15.6016C21.7194 15.5314 21.744 15.4605 21.7761 15.3903C21.8904 15.3994 21.8732 15.4861 21.7836 15.6197ZM21.865 16.4527C21.9008 16.4247 21.9337 16.3976 21.9792 16.3697C22.0905 16.4813 22.1689 16.5855 22.387 16.6994C22.3601 16.7469 22.3354 16.7937 22.3168 16.8405H22.2563C22.0315 16.6722 21.9613 16.596 21.865 16.4527ZM21.9546 15.8664H22.1816C22.2884 15.9992 22.5139 16.1312 22.3354 16.3274C22.0442 16.1682 22.0517 16.0792 21.9546 15.8664ZM22.6931 14.6486C22.8888 14.5777 22.9694 14.5249 23.2465 14.5422C23.587 16.1237 23.8461 20.1143 23.4473 22.1371C23.2703 22.1371 23.0993 22.1371 22.9283 22.1447C22.8059 22.0919 22.6849 22.0406 22.5632 21.9953C22.1659 19.8306 22.5707 16.8209 22.6931 14.6486ZM23.6355 16.1584C23.7251 16.2565 23.9364 16.5658 23.7154 16.679C23.6437 16.4406 23.5227 16.2821 23.6355 16.1584ZM23.8341 16.052C23.9544 16.1146 24.088 16.175 24.2209 16.2361C24.2105 16.2957 24.2105 16.3576 24.2105 16.4293C24.1672 16.4293 24.1224 16.4293 24.088 16.4398C23.9611 16.4127 23.6773 16.2218 23.8341 16.052ZM24.5868 16.7733C24.5278 16.8261 24.483 16.8903 24.433 16.9544C24.2807 16.851 24.1403 16.7605 23.9999 16.6737C24.1537 16.5953 24.5166 16.5485 24.5868 16.7733ZM24.9811 17.3339C24.8766 17.4147 24.8766 17.4147 24.731 17.4554C24.3255 17.3475 23.8573 17.2992 24.377 17.1129C24.6234 17.2079 24.7758 17.2547 24.9811 17.3339ZM25.058 17.7036C24.9669 17.7836 24.8773 17.8893 24.7959 17.8893C24.5779 17.8364 24.545 17.7572 24.4711 17.6501C24.7145 17.5807 24.8213 17.4486 25.058 17.7036ZM25.2514 18.228C25.2402 18.2522 25.2402 18.2876 25.2402 18.3261L24.899 18.437C24.3964 18.351 24.4405 18.2378 24.7384 18.0032C24.8878 18.0786 24.9669 18.1646 25.2514 18.228ZM25.4747 18.8528C25.5053 18.8958 25.3246 18.8935 25.2611 18.8935C25.0222 18.8588 24.7907 18.6272 24.7086 18.7388C24.9356 18.431 25.2708 18.5638 25.4747 18.8528ZM25.695 19.2225C25.6838 19.3024 25.6718 19.396 25.6718 19.4873C25.6211 19.4873 25.568 19.4873 25.515 19.4986C25.2081 19.4526 25.1312 19.5258 24.9841 19.39C25.0453 19.2617 25.1215 19.1478 25.1947 19.0316C25.3522 19.1576 25.5247 19.0942 25.695 19.2225ZM25.8555 19.8555V19.9521C25.7293 20.0917 25.5621 20.0502 25.409 20.0328L25.2559 19.7001C25.4336 19.6329 25.6502 19.7295 25.8555 19.8555ZM26.0878 20.49L25.4501 20.478L25.3642 20.3867C25.6875 20.1913 25.7398 20.1694 26.0878 20.49ZM26.2909 20.8733C26.205 20.9669 25.931 20.9669 25.8712 20.9669L25.5501 20.8092C25.5591 20.7436 25.5733 20.6923 25.5845 20.6387C25.8107 20.7179 26.0489 20.7964 26.2909 20.8733ZM26.3984 21.3879C26.3753 21.4143 26.3499 21.4543 26.3267 21.4936H26.2192C26.1214 21.4272 26.025 21.36 25.9392 21.2951C26.0348 21.1367 26.2662 21.0839 26.3984 21.3879ZM26.656 21.9342L26.5582 22.0142C26.323 21.9862 26.2588 21.9244 26.1617 21.8195C26.217 21.7478 26.3073 21.5811 26.3969 21.5811C26.4537 21.6414 26.5993 21.7478 26.656 21.9342ZM26.9323 22.3567C26.895 22.3967 26.8569 22.4495 26.8338 22.5023H26.7494C26.556 22.4239 26.3768 22.3567 26.1946 22.2926C26.3394 22.1349 26.6665 22.2277 26.9323 22.3567ZM27.1519 22.7279C27.1519 22.7604 27.1519 22.7936 27.1631 22.826C27.1048 22.8901 27.0428 22.9784 26.9532 22.9784C26.7098 22.946 26.5993 22.9362 26.5388 22.7936C26.7315 22.7279 26.8718 22.5951 27.1519 22.7279ZM27.231 23.2983C27.1317 23.3247 27.0354 23.3519 26.9391 23.3911C26.7793 23.2855 26.5717 23.1942 26.6217 23.0727C26.9741 23.0727 27.0048 23.0048 27.231 23.2983ZM27.4498 23.6273L27.4842 23.7458H26.8181C26.8181 23.705 26.8315 23.6658 26.8435 23.6424C27.0451 23.6273 27.2475 23.6273 27.4498 23.6273ZM27.7336 24.1638C27.7164 24.2196 27.7164 24.2196 27.5103 24.3139C27.3871 24.2415 27.2661 24.1638 27.1638 24.1064C27.2303 24.0529 27.2997 23.997 27.3699 23.9585C27.4901 24.0144 27.6096 24.0928 27.7336 24.1638ZM29.174 28.5218C29.0531 28.5754 28.9298 28.6267 28.8171 28.6901C28.0606 28.5037 27.915 28.4411 27.517 27.7439C27.6141 27.5138 27.7127 27.2852 27.818 27.0618C27.8665 27.0543 27.9232 27.0543 27.9793 27.0543C27.9636 27.7251 27.7612 27.8669 28.4355 28.1589C28.4512 27.9454 28.3227 27.848 28.2645 27.7884C28.3056 27.5055 28.4923 27.304 28.6207 27.0996C28.2884 26.843 28.1913 26.6574 27.8665 26.4726C27.5245 26.4892 26.8203 26.7729 26.609 26.6574C26.5993 26.6046 26.5993 26.551 26.5993 26.5065C27.1183 26.0832 27.5013 26.1376 28.1674 26.0923C27.8351 25.2706 27.1026 25.1129 26.4455 24.7674C26.438 24.7236 26.438 24.7236 26.4768 24.627C28.4594 25.165 28.9776 26.2945 29.174 28.5218ZM26.8031 27.0196C26.8599 27.0196 26.9002 27.0475 27.0055 27.1071C26.827 27.304 26.7292 27.5138 26.5993 27.7522C26.5754 27.7522 26.5507 27.7522 26.5254 27.762H26.4768C26.5582 27.4708 26.665 27.2407 26.8031 27.0196ZM27.5013 26.8694C27.5088 26.8694 27.517 26.8694 27.5342 26.8785C27.5342 27.1622 27.3878 27.6209 27.128 27.7967C27.0869 27.762 27.0466 27.7251 27.013 27.6911L27.5013 26.8694ZM29.3032 28.9368C28.9702 29.2009 28.711 29.3163 28.4355 29.465C28.6207 29.7826 28.8089 30.1093 29.003 30.4375C28.9702 30.4813 28.9388 30.5243 28.9142 30.5786C28.2645 30.5613 27.9793 30.6925 27.4931 30.7642C27.4931 31.0011 27.0302 31.3022 26.827 31.3648C26.827 30.1802 26.5022 29.1375 26.3312 28.0706C26.957 27.3901 27.971 28.6984 28.4512 29.1926C28.7521 29.0605 28.947 28.9987 29.3032 28.9368ZM29.6863 33.6683H29.6124C28.6132 33.4661 28.4923 33.024 27.9397 32.2197L27.0712 32.1933C27.0623 32.1774 27.0555 32.1661 27.0466 32.1586C28.3944 31.5331 27.5671 32.3185 28.6379 32.2484C28.4923 32.0514 28.3466 31.8681 28.2085 31.6817C27.7866 31.7172 27.3632 31.7526 26.9488 31.7964C26.9084 31.7526 26.8674 31.7172 26.827 31.6817C27.4446 31.4886 27.6641 31.3807 28.4258 31.3807L28.6946 31.7262C28.7835 31.7172 28.8806 31.7172 28.9776 31.7172C28.3384 31.0985 28.2974 31.109 27.5573 31.011V30.9227C27.7866 30.7363 28.4594 30.8253 28.832 30.8253C29.36 31.9028 29.8573 32.3268 29.6863 33.6683ZM34.3795 37.8363C34.3541 37.828 34.3407 37.828 34.3235 37.828C33.6335 37.5888 33.299 37.3421 32.7957 36.9278C34.3795 35.9477 34.2182 35.6467 34.599 37.3239C34.3653 37.4922 34.3795 37.539 34.3795 37.8363ZM35.6056 38.4452H35.5414C35.1023 38.295 34.8417 38.1283 34.558 37.8974C34.558 37.3073 36.4024 37.3345 35.6056 38.4452ZM32.2528 36.6713C31.4471 36.1944 31.0334 35.833 30.442 35.203C31.1305 34.8869 31.7891 34.9752 32.5522 35.0023C32.6575 35.1781 33.2019 36.0601 33.1123 36.3536C32.8696 36.4246 32.4148 36.6713 32.2528 36.6713ZM29.8476 34.6922C29.7505 34.6032 29.5653 34.5549 29.572 34.4289C29.5997 33.866 30.8699 34.2931 31.4949 34.3746C30.8295 34.4968 29.9215 34.6922 29.8476 34.6922ZM31.0662 33.0051H31.0894C31.1394 33.236 31.0177 33.3416 30.8639 33.5627L30.79 33.4299C30.8781 33.2881 30.9692 33.1477 31.0662 33.0051ZM30.4733 33.6427C30.4562 33.6427 30.4487 33.6427 30.442 33.6502C30.2224 33.325 30.5062 33.0859 30.6518 32.8648C30.7003 32.8927 30.7571 32.9184 30.8153 32.9523C30.8153 33.0051 30.5301 33.5106 30.4733 33.6427ZM30.0268 33.854H29.9775C29.9461 33.8275 29.9118 33.8094 29.8804 33.7921C29.8804 33.4827 30.0514 33.2013 30.141 32.935C30.1724 32.9636 30.2053 32.9893 30.2456 33.0157C30.2299 33.325 30.1649 33.5718 30.0268 33.854ZM29.1897 29.8792C30.0597 29.4476 30.1239 30.0927 30.8228 30.9491C30.8228 31.2328 30.2456 32.6882 30.1814 32.6528C29.8804 32.4317 30.0268 32.2815 30.1082 32.0695C29.7916 31.4516 29.1897 30.5341 29.1897 29.8792ZM31.8548 28.7595C32.0243 28.8742 32.2028 28.9889 32.382 29.1118C32.382 29.1118 31.8451 32.8293 31.3112 32.5381C30.961 32.1586 32.6732 29.3759 32.0161 28.9542C31.5285 29.3948 31.1962 31.6198 30.781 32.4868C30.6518 32.4868 30.6847 32.4498 30.66 32.4242C30.8557 31.4886 31.1066 29.2975 31.8548 28.7595ZM32.5918 29.1828C32.7942 30.0557 32.7255 31.1981 32.7628 32.0959C32.5522 32.185 32.3506 32.2733 32.1453 32.3713L32.0415 32.2816C32.1132 31.435 32.0728 29.8369 32.5918 29.1828ZM32.0557 28.3438C32.0557 27.6368 32.3895 27.2407 33.0638 27.2754C33.3572 27.6556 33.4125 27.9559 33.47 28.5641C33.3647 28.6192 33.2602 28.6712 33.1631 28.7233C32.5761 28.6614 32.4305 28.6448 32.0557 28.3438ZM33.0638 29.0681C33.6641 29.3948 33.5581 30.7107 33.1937 31.3361H33.1631C32.9585 30.7733 32.9995 29.7305 32.9667 29.1752L33.0638 29.0681ZM33.7866 28.389C34.4109 28.389 33.8994 29.308 33.7694 29.6159H33.6723C33.641 29.6068 33.6081 29.5978 33.5753 29.5978C33.5185 28.9708 33.5514 28.8832 33.7866 28.389ZM35.2233 29.5351C35.0777 30.9664 33.8762 33.8275 32.2924 34.066C31.9676 34.0222 31.6509 33.9784 31.3343 33.943C31.3343 32.5207 32.7957 32.8037 33.5842 31.6304C33.8837 30.7288 34.1114 29.8369 34.502 29.0334C34.8417 29.0334 34.9313 29.2197 35.2233 29.5351ZM35.9402 34.6145C35.233 35.1427 34.3967 35.876 33.5514 36.0186C33.4058 35.5939 33.2348 35.117 33.1362 34.7631C33.8105 34.3217 35.9402 32.3713 35.9402 34.6145ZM37.2305 34.2953C37.3104 34.6485 37.4501 35.0023 37.3761 35.4709C36.9132 35.7878 35.419 37.1119 35.0695 37.1829C34.8417 36.7596 34.6887 36.3884 34.5251 36.0186C34.9 35.7795 37.0513 34.1641 37.2305 34.2953ZM36.1418 38.135C35.233 36.9731 36.1911 36.7943 37.1663 36.1492C37.238 36.1492 37.3104 36.3091 37.3844 36.4412C37.53 37.6763 37.0513 37.6695 36.1418 38.135ZM37.3022 38.0837L37.2791 39.0035C37.2462 38.9922 37.2208 38.9922 37.1977 38.9922C36.719 38.9665 36.4263 38.8888 36.0373 38.7545C35.973 38.547 37.1096 38.0415 37.3022 38.0837ZM29.8961 42.5429C30.4091 42.1905 30.9438 42.3309 31.5949 42.1905C32.1796 41.9604 32.7315 41.519 33.3401 41.9174C32.4066 42.6138 31.7966 43.3887 30.6443 43.3887C30.1649 43.2061 30.0843 42.9315 29.8961 42.5429ZM28.4594 41.8985C28.4684 41.5462 28.4825 41.1908 28.4997 40.8392C29.2539 40.3707 30.1 40.4597 31.0095 40.4159C31.0662 40.3005 31.1305 40.1851 31.1962 40.0794C31.2604 40.0794 32.2924 41.138 32.488 41.3327C31.1066 41.8095 30.262 42.1008 28.9216 42.1551C28.7678 42.0661 28.6132 41.9778 28.4594 41.8985ZM16.6744 42.1905C16.7641 41.9333 16.8626 41.6782 16.9597 41.4308C18.6817 41.5809 20.2969 42.1807 22.0763 42.3762C22.083 41.802 22.1331 41.2172 22.2145 40.6981C23.3674 40.7321 27.6372 40.3186 27.9793 41.0603C28.0532 41.3772 28.1346 41.731 28.142 42.1181C27.4446 42.8349 26.9727 43.5766 26.0377 43.7433C25.801 43.5871 24.672 42.7632 25.0155 42.4637L26.0377 42.595C26.1527 42.9662 26.0064 43.3208 26.1871 43.6566C26.4283 43.4347 26.438 42.9496 26.4865 42.6395C26.827 42.5874 27.1101 42.561 27.5417 42.595C27.5245 42.472 27.5088 42.3482 27.5013 42.2245C25.6898 42.0034 23.7908 41.4474 22.1973 42.3762C19.5912 44.6518 20.2969 42.1287 17.9917 41.802C17.5526 41.9499 17.0725 42.1905 16.6744 42.1905ZM12.9154 41.138C13.0207 40.6627 13.126 40.3526 13.3141 39.973C14.3446 40.3337 15.5066 40.6702 16.5132 41.3425C16.5288 41.6073 16.5542 42.1905 16.3504 42.4094C15.3841 42.0132 13.7674 41.138 12.9154 41.138ZM11.0075 40.3707C11.4384 40.3707 12.088 40.9622 12.5099 41.2534C12.3389 41.4836 11.7863 41.765 11.5593 41.8457C10.9821 41.4564 11.0478 41.0158 11.0075 40.3707ZM10.6401 38.4097C10.8365 38.4097 12.6301 39.4253 12.9079 39.7256C12.834 39.9202 12.4203 40.7245 12.3949 40.7147C11.6489 40.1322 10.1054 39.4962 10.6401 38.4097ZM10.2346 36.5476C10.2675 36.5121 10.3003 36.4849 10.3317 36.4593C10.885 36.9799 11.2912 37.2719 12.0141 37.6507C11.9327 37.9517 11.8513 38.2512 11.7714 38.5606C11.7535 38.5606 11.746 38.5606 11.7378 38.5681C10.6401 37.9781 10.2764 37.7842 10.2346 36.5476ZM9.95982 34.6032C10.5841 35.1706 12.5256 36.0964 12.834 36.7679C12.5913 37.0765 12.5756 37.121 12.2665 37.1655C11.5847 36.8396 9.26237 35.4777 9.95982 34.6032ZM10.0965 24.8119C10.0883 25.5536 10.0883 25.5536 10.0726 25.5453C9.75596 25.3506 9.41545 25.076 9.41545 24.7153C9.74849 24.5388 9.62603 24.5554 10.0965 24.8119ZM11.0874 24.3169C10.4975 24.0438 11.3002 23.4726 11.4779 23.5677C11.4055 23.8054 11.283 24.1064 11.0874 24.3169ZM12.3307 24.2128C12.2254 25.1212 11.8356 25.7837 11.4122 26.6408L11.5982 26.6672C11.6721 26.9841 12.5659 30.2949 12.3464 30.7733C11.8603 30.5613 11.5922 30.2693 11.1703 30.2331C11.1703 31.3361 12.9565 31.4961 13.3216 32.2921C13.0707 32.6362 12.7369 33.2707 12.3546 33.4043C9.65067 31.9382 9.90979 31.6734 10.3175 28.8312C10.5841 28.6086 10.714 28.6192 11.0963 28.5565C11.2016 28.7678 11.3084 28.9791 11.4212 29.2009C11.4294 29.2009 11.4384 29.2009 11.454 29.2092C11.6975 28.9451 11.2987 28.4411 11.2173 28.2389C10.024 28.1053 9.41545 27.4874 8.51414 26.7985C8.50593 26.7457 8.49697 26.7019 8.49697 26.6574L7.76592 26.5254C7.76592 26.4545 7.76592 26.3918 7.77563 26.3315C8.21246 26.4545 8.65976 26.5774 9.10705 26.7019C9.10705 26.7457 9.11452 26.7902 9.12273 26.843C9.27731 26.8785 9.91875 27.1441 10.1383 27.0905C9.17874 25.8358 6.80039 25.5981 7.62777 23.7873C7.93692 23.6462 7.89585 24.1585 8.05117 24.4143C8.18782 24.2641 8.33343 24.1155 8.48129 23.9729C8.56268 24.0174 8.64408 24.071 8.72398 24.1223C8.73219 24.2558 8.74115 24.3879 8.75683 24.5199C8.70829 24.5478 8.65976 24.5735 8.61122 24.6104V24.7862C9.19591 24.7862 9.18845 24.2558 9.42367 25.1839C9.66636 25.6434 10.1308 25.9067 10.6169 26.2251C10.8365 26.1459 10.5042 24.6972 10.4631 24.5478C10.2189 24.4241 9.9755 24.3086 9.74028 24.1932C9.74028 24.0785 9.8956 23.9729 9.95982 23.8937C10.4713 24.0529 10.7954 24.6519 11.2584 25.1303C11.7206 24.9983 11.9245 24.5652 12.2254 24.1751C12.2568 24.1856 12.2904 24.1932 12.3307 24.2128ZM12.4121 28.3521H12.3546C12.3053 28.3256 12.2568 28.3007 12.2164 28.2743C12.2321 28.0533 12.315 27.9303 12.4203 27.7703H12.5502C12.5502 27.9635 12.5585 28.1317 12.4121 28.3521ZM12.7115 26.7095C12.7115 26.843 12.4278 27.5757 12.2747 27.4082C11.8759 26.9758 12.0298 25.8094 12.4046 25.4034C12.607 25.669 13.3044 26.4281 12.7115 26.7095ZM12.2747 18.7728C12.4532 18.5781 12.8908 17.9858 13.1021 17.9149C13.1431 17.9526 13.1842 17.9858 13.2245 18.0296C13.126 18.1284 12.4532 18.8611 12.3718 18.8611C12.3389 18.8256 12.3053 18.7984 12.2747 18.7728ZM12.7212 17.598C12.5099 18.0394 12.3307 18.3487 11.8842 18.56C11.8842 18.1714 12.2822 17.4924 12.7212 17.598ZM13.6703 16.9174C13.2559 16.8126 13.0132 15.2485 12.9482 14.9127C12.9804 14.8705 13.0132 14.8259 13.0461 14.7897C13.4344 15.1089 13.7764 16.4323 13.6703 16.9174ZM13.4441 20.601C13.2559 20.5572 13.0774 20.5127 12.8982 20.4757C12.7041 20.0615 12.4688 19.5318 12.4688 19.1598C12.4845 19.1448 13.3216 18.3578 13.3216 18.7011C12.9647 19.055 12.8011 19.6209 13.1745 20.1671C13.2484 20.1143 13.3216 20.0615 13.403 20.017C13.3784 19.4609 13.4837 19.1161 13.5979 18.649C13.5979 18.0122 13.0461 17.598 12.8497 17.1031C12.8907 17.0699 12.9318 17.0419 12.9721 17.0133C13.3201 17.1393 13.9758 18.1096 14.0527 18.1096C14.0855 18.0658 14.1169 18.022 14.158 17.9858C13.8899 17.0246 13.7278 16.2022 13.6211 15.3201L13.7189 15.1873H13.7592C14.4903 16.6171 14.4843 19.2308 13.4441 20.601ZM16.0001 27.0815L15.9031 27.7439C15.5469 27.5591 15.1974 27.3742 14.8479 27.1961C14.8397 27.2052 14.9779 27.5462 14.9853 27.5938C15.3199 28.168 16.8141 28.8131 17.5123 28.5384C17.6825 28.6614 17.8207 28.9021 17.9999 29.1571C18.0484 29.1118 18.1044 29.0779 18.1612 29.0409C18.4935 29.5012 18.1941 32.5917 18.8116 33.9332C18.9497 33.9332 19.1267 33.854 19.2903 33.8011C18.9408 32.1661 18.7459 32.2921 19.9003 31.567C20.2408 31.8764 19.8107 33.2451 19.7039 33.8011C19.7532 33.8185 19.7779 33.8185 19.8018 33.9241C19.8421 33.9241 19.8921 33.9241 19.9392 33.9332C19.9959 33.8275 20.0616 33.7212 20.1273 33.6231C20.1841 33.6344 20.1841 33.6344 20.4932 33.8094L20.5164 34.2342C20.8913 33.9852 20.9965 31.4622 20.948 31.0985C20.7927 31.0291 20.6389 30.9589 20.4932 30.8955C20.5007 30.7914 20.5164 30.6926 20.5336 30.5945C20.6874 30.5945 20.7845 30.7642 20.9226 30.9755C20.9712 30.9589 21.0279 30.94 21.0854 30.931C21.4184 29.9607 21.2392 28.635 21.4028 27.6737C21.7022 27.3455 21.8247 27.1335 21.986 26.754C21.9949 26.754 22.0031 26.7638 22.0188 26.7729C21.7993 29.2794 21.7269 31.8764 21.6126 34.4364H22.0106L22.1331 33.6155C22.6849 33.6155 23.2547 33.6231 23.8633 33.7212L23.8879 34.7186C23.8461 34.7111 23.8065 34.7111 23.7654 34.7111C21.0936 34.5768 17.9178 34.41 15.6679 32.8376C15.6679 31.4705 16.5363 30.2255 16.2623 28.6984C16.1712 28.6901 16.083 28.6901 16.0001 28.6901C15.8717 29.4476 15.6126 32.0891 15.3199 32.6256C15.2071 32.6 15.1003 32.5735 14.995 32.5479C14.8965 31.4078 15.0518 30.2512 14.8636 29.2265C14.1497 27.7251 13.4269 26.1896 12.8109 24.7417C12.6884 23.7971 12.6959 22.8864 12.7212 22.0028C12.9565 21.8799 12.9721 21.7833 13.2888 21.8542C13.3858 22.0474 13.4993 22.233 13.6054 22.5348C13.9474 24.953 14.0683 25.4744 16.0001 27.0815ZM16.6431 20.564C14.7994 21.8897 14.7994 21.8353 15.3199 24.0347C15.9688 24.7764 16.1144 24.7515 15.8792 25.8622C15.6268 25.9421 15.3998 26.0568 15.1974 26.1021C15.0593 25.9957 14.9293 25.8901 14.7994 25.7837C14.7352 25.1031 14.4589 24.627 14.2155 24.0785C14.1826 24.071 14.158 24.0619 14.1326 24.0619C14.1027 23.4259 14.0527 22.8773 13.9713 22.3394C14.5716 21.7569 16.2212 20.7428 16.0741 19.8683C16.3183 19.6027 16.7715 20.1317 16.6431 20.564ZM18.5749 24.8036C18.2993 25.0858 17.8692 25.4834 17.4473 25.368C17.1053 25.1303 17.1053 25.1303 17.0725 25.1303C17.3159 25.5634 17.7804 26.2055 16.9351 26.3473C16.2779 26.1542 16.5363 25.2005 16.3011 24.7674C14.1169 21.4732 16.5049 19.9204 18.6899 22.4457C18.5189 22.826 17.7311 22.9407 17.634 23.1082C17.8207 23.2319 18.0074 23.3625 18.1941 23.496C18.1941 23.573 17.7094 24.2075 17.634 24.3011C18.1142 24.5327 17.8506 23.8808 18.4054 24.0619C18.0828 24.7032 18.5749 24.4294 18.5749 24.8036ZM18.8116 26.0923C18.7302 25.9776 18.6488 25.8622 18.5674 25.758C18.7899 25.1899 19.0237 26.167 18.8116 26.0923ZM18.9079 25.0066C19.0222 25.0322 19.0954 25.0322 19.2089 25.245C19.1775 25.2887 19.1446 25.3423 19.1133 25.3944H19.0065C18.9497 25.3333 18.8937 25.2804 18.8452 25.2284C18.8601 25.1476 18.884 25.076 18.9079 25.0066ZM19.0797 24.3879C19.1446 24.4316 19.5098 24.6353 19.356 24.8836C19.1267 24.7063 18.9736 24.627 19.0797 24.3879ZM19.1364 23.8408C19.3059 23.9027 19.403 23.9729 19.5583 24.2309C19.5329 24.2641 19.4941 24.3086 19.4613 24.3086C19.2977 24.1494 19.0797 23.9917 19.1364 23.8408ZM19.4172 23.1738C19.5516 23.2259 19.6114 23.2259 19.6793 23.5194C19.5725 23.6786 19.5725 23.6786 19.5516 23.6703C19.4657 23.5956 19.3799 23.5322 19.2918 23.4666C19.2918 23.2259 19.3015 23.3006 19.4172 23.1738ZM19.4866 22.6585L19.9153 22.9701C19.9153 22.9814 19.9063 23.1369 19.8764 23.1052C19.7054 23.0335 19.5434 22.9603 19.3814 22.8864C19.3724 22.8456 19.3724 22.8041 19.3724 22.7626C19.4105 22.7226 19.4478 22.6894 19.4866 22.6585ZM19.8608 22.6057L19.4941 22.1432C19.8197 21.5479 19.9429 22.6947 19.8608 22.6057ZM19.6696 21.4626C19.7562 21.4475 19.8518 21.4347 19.9504 21.4347C19.9967 21.486 20.4343 21.8693 20.0952 22.0534C19.7189 21.8172 19.7794 21.7237 19.6696 21.4626ZM19.8862 21.1442C19.9198 21.0612 19.9526 20.9797 19.9959 20.9096C20.0915 20.9096 20.4664 21.191 20.2633 21.4113C20.1348 21.3193 20.0041 21.2249 19.8862 21.1442ZM20.382 20.9729C20.2386 20.8522 20.096 20.7458 19.9511 20.6357C20.5142 19.8925 20.7038 20.8666 20.382 20.9729ZM20.2894 19.7702C20.3551 19.7793 20.4178 19.7884 20.4932 19.805C20.5336 19.894 20.4932 20.2826 20.3939 20.1762C20.2969 20.0351 20.2244 19.9385 20.2072 19.8759C20.2341 19.8419 20.258 19.805 20.2894 19.7702ZM20.4932 19.0836C20.6023 19.2217 20.8494 19.4481 20.8494 19.7393C20.8114 19.7393 20.7807 19.7506 20.7501 19.7604C20.5433 19.7069 20.4133 19.5341 20.3058 19.4254C20.3536 19.3077 20.4036 19.1893 20.4529 19.0836H20.4932ZM20.6224 18.6407C20.724 18.6898 20.8226 18.7517 20.9241 18.8128C20.9241 18.8596 20.9241 18.9093 20.9353 18.9561C20.9137 18.9448 20.8898 18.9448 20.8681 18.9448C20.5881 18.7864 20.5881 18.7864 20.5448 18.7268C20.5664 18.6898 20.5881 18.6641 20.6224 18.6407ZM20.606 16.089C20.6792 16.1682 20.7516 16.2467 20.8255 16.3365C20.8084 16.4406 20.8002 16.5477 20.7927 16.6624C20.7516 16.6624 20.7128 16.6624 20.6792 16.6715C20.4425 16.6715 20.5164 16.2821 20.5089 16.1758C20.5403 16.141 20.5731 16.1146 20.606 16.089ZM21.0451 16.0792C20.8412 15.8936 20.8158 15.8498 20.7688 15.665C20.7845 15.6385 20.8084 15.6114 20.833 15.5857C20.9152 15.594 20.9965 15.6114 21.0854 15.628C21.0854 15.717 21.0936 16.1048 21.0451 16.0792ZM21.1593 16.6624C21.2721 16.4142 21.2878 16.4587 21.523 16.679C21.523 16.7243 21.523 16.7243 21.4513 16.8473H21.4117C21.3206 16.7862 21.2392 16.7243 21.1593 16.6624ZM21.3848 15.4861C21.3117 15.373 21.2474 15.2575 21.1832 15.1428C21.3774 14.6034 21.5641 15.3903 21.3848 15.4861ZM21.6783 16.2821C21.5969 16.3365 21.5969 16.3365 21.5895 16.3168C21.3946 16.0709 21.4334 16.1048 21.523 15.877C21.5715 15.877 21.7022 16.1237 21.6783 16.2821ZM21.6298 14.6034C21.6552 14.675 21.7022 14.7716 21.7269 14.9233C21.7022 14.9316 21.685 14.9399 21.6694 14.9572C21.523 14.8003 21.5895 14.7022 21.6298 14.6034ZM20.5089 13.5538C20.8158 13.1389 21.5969 12.8476 21.9703 13.4557C20.6702 13.5621 20.6702 13.5621 20.5089 13.5538ZM17.6751 13.7485C17.926 13.5893 19.4284 13.2716 19.6151 13.5817C18.9654 13.7213 18.3568 13.8451 17.7565 13.8986C17.7236 13.8451 17.6982 13.7923 17.6751 13.7485ZM17.463 13.0415C17.6654 12.751 19.0707 12.5654 19.5016 12.5217L19.7368 12.7774C19.0065 13.1215 18.2508 13.1041 17.5451 13.1471C17.5123 13.1117 17.4884 13.0762 17.463 13.0415ZM19.8018 11.9543C19.7704 12.0176 19.7368 12.0803 19.7039 12.1519L19.1267 12.1768C19.1133 12.2033 19.1036 12.2289 19.0954 12.2553C18.7145 12.1233 18.4375 12.4598 18.0813 12.4598C17.5526 12.4311 17.5526 12.4311 17.4712 12.4055C17.6407 11.9656 19.3313 11.6374 19.8018 11.9543ZM20.1027 12.2478C20.2812 12.37 20.4604 12.4937 20.6463 12.6273V12.822C20.4604 12.963 20.2812 13.1041 20.1027 13.2543L19.9802 13.1743C19.972 12.8831 19.8832 12.4055 20.1027 12.2478ZM21.9292 11.9656C21.7507 12.0961 21.1422 12.45 21.1011 12.4311C20.8084 12.2651 20.5164 12.0961 20.2341 11.9384C20.3782 11.7792 21.6044 11.8841 21.9292 11.8841V11.9656ZM22.4908 12.1768C22.4908 12.3081 22.4654 13.0151 22.3437 12.8831C22.157 12.8031 21.9703 12.7329 21.7836 12.662C21.7761 12.5994 21.7679 12.5383 21.7679 12.4862C21.9621 12.3443 22.157 12.2033 22.3511 12.069C22.3914 12.1067 22.4407 12.1406 22.4908 12.1768ZM23.4727 10.9847C23.3032 11.0549 23.1322 11.1266 22.9694 11.1967C22.083 11.0368 21.986 10.0386 22.7334 9.70431C22.7334 9.40477 22.7334 9.10297 22.7417 8.80267C22.3354 8.80267 21.9292 8.80267 21.523 8.81248C21.0682 9.96009 19.0633 8.10475 21.004 7.69203C21.3699 7.84897 21.3946 7.76975 21.5641 8.21944C21.9546 8.21944 22.3437 8.21944 22.7417 8.22849C22.7334 7.87764 22.726 7.52302 22.726 7.16991C21.004 6.47274 24.4241 4.62645 23.5459 7.08088L23.3264 7.18726C23.3166 7.53208 23.3166 7.87764 23.3166 8.22849C23.6437 8.21944 23.9775 8.21944 24.3098 8.21944C24.5047 7.58338 24.9871 7.66714 25.4874 7.88443C25.9422 9.13013 24.772 9.61453 24.3501 8.81248C24.0014 8.80267 23.6594 8.80267 23.3166 8.80267C23.3166 9.11127 23.3166 9.43118 23.3264 9.74808C23.8304 9.96009 23.6183 10.5607 23.4727 10.9847ZM23.2547 12.2033C23.286 12.2553 23.3166 12.3179 23.3502 12.3791C23.286 12.45 23.1964 12.5473 23.1322 12.5473C22.4736 12.4937 22.726 12.167 23.2547 12.2033ZM23.3107 13.1917L22.8231 13.3245C22.7902 13.2716 22.767 13.2264 22.7417 13.1834C22.8059 13.1471 23.416 12.8476 23.3107 13.1917ZM23.115 11.8147C23.0097 11.7702 22.9127 11.7347 22.8141 11.6992C22.723 11.0964 23.5601 11.574 23.115 11.8147ZM23.8461 13.7304C23.8461 13.9069 23.8379 13.9515 23.7154 14.1446C23.1733 14.1446 22.6364 14.1446 22.1002 14.1552C22.0442 13.9258 22.0674 13.9069 22.1331 13.7568C22.5296 13.7213 23.4727 13.5267 23.8461 13.7304ZM23.8461 14.6667C23.7736 14.6486 23.7079 14.6403 23.6437 14.6313C23.6684 14.5694 23.6923 14.5166 23.7251 14.4638C23.8065 14.4992 23.911 14.7022 23.8461 14.6667ZM24.1231 15.2356C23.8491 15.1315 23.6773 15.0032 23.7199 14.8433C23.8356 14.8093 23.9208 14.8561 24.1082 14.9474C24.0021 15.0953 24.153 15.2356 24.1231 15.2356ZM24.4166 15.5472C24.3912 15.5472 24.3785 15.5616 24.3628 15.5774C24.2157 15.5163 24.0843 15.4612 23.9499 15.4175C23.9768 15.3745 24.0014 15.3299 24.0305 15.3013C24.1485 15.3443 24.2829 15.3888 24.4166 15.4469V15.5472ZM24.7138 15.8717C24.7033 15.9064 24.6936 15.9426 24.6936 15.9886C24.5667 16 24.4517 16.0113 24.3337 16.0347L23.9529 15.7585C23.9529 15.5073 24.657 15.8362 24.7138 15.8717ZM25.0394 16.3591L25.0013 16.4391C24.7773 16.4391 24.5532 16.4391 24.3419 16.4512L24.2531 16.3591C24.5413 16.2097 24.5898 16.1825 25.0394 16.3591ZM25.2133 16.7265C25.1215 16.8126 24.9968 16.9114 24.9064 16.9114C24.8258 16.8609 24.7489 16.8126 24.6809 16.7748C24.7272 16.6888 24.7713 16.6036 24.8258 16.5281C24.9064 16.5281 25.0423 16.6134 25.2133 16.7265ZM25.5442 17.1732C25.4217 17.2623 25.3478 17.3422 25.2193 17.3422C25.0894 17.3422 25.0483 17.1732 25.0401 17.1476C25.2268 17.051 25.2679 16.962 25.5285 17.0329C25.5285 17.0766 25.5359 17.1212 25.5442 17.1732ZM25.9496 17.6161C25.5113 17.8636 25.5113 17.8636 25.4702 17.8636C25.2835 17.7036 25.3164 17.7036 25.4217 17.5618C25.5927 17.5618 25.7637 17.5724 25.9347 17.5807C25.9347 17.589 25.9422 17.598 25.9496 17.6161ZM26.1893 18.099C25.9944 18.1752 25.6793 18.3321 25.58 18.3321C25.5397 18.2529 25.5091 18.1752 25.4814 18.1126C25.754 18.0198 25.8802 17.927 26.1893 18.099ZM26.4813 18.523C26.4708 18.5826 26.4634 18.6536 26.4634 18.7237C26.2677 18.7335 26.0736 18.7554 25.8906 18.7735C25.8436 18.7132 25.798 18.6634 25.751 18.6128C25.9451 18.4038 26.1572 18.4219 26.4813 18.523ZM26.768 19.2051H26.1154L26.1475 19.0255C26.3469 19.0127 26.556 19.0006 26.768 19.0006V19.2051ZM26.9951 19.4111C26.8913 19.4865 26.8913 19.4866 26.5395 19.6141C26.4582 19.5628 26.3768 19.5122 26.2939 19.4737C26.4806 19.4111 26.6792 19.3975 26.9951 19.4111ZM27.0466 20.1837C26.9159 20.1143 26.786 20.0441 26.665 19.9717C26.665 18.9169 27.6014 20.4772 27.0466 20.1837ZM27.5544 20.2969C27.5544 20.3482 27.4827 20.7239 27.4028 20.687C27.2079 20.6115 27.1026 20.5104 27.0339 20.4478C27.0697 20.3859 27.3811 20.2335 27.5544 20.2969ZM27.9598 21.1404C27.8456 21.1291 27.7313 21.1291 27.6253 21.1291C27.5454 21.062 27.4722 21.0054 27.3998 20.948C27.6918 20.77 27.6178 20.7134 27.9374 20.9714C27.9374 21.028 27.9479 21.0854 27.9598 21.1404ZM28.2234 21.486C28.0845 21.5154 27.9479 21.5554 27.8232 21.5947C27.6858 21.5396 27.5611 21.4981 27.4386 21.4596C27.4625 21.3909 27.4991 21.3223 27.5342 21.2702C27.8232 21.2431 27.8732 21.231 28.2234 21.486ZM27.8732 22.1221L27.6484 21.8836C28.331 21.4837 28.6005 21.8029 27.8732 22.1221ZM28.5968 22.0172C28.5968 22.3424 28.1488 22.2624 28.3101 22.2398C28.2593 22.2269 28.0666 22.2926 28.0226 22.2775L28.3362 21.981C28.4437 21.981 28.4766 22.0059 28.5968 22.0172ZM28.9269 22.6027C28.7685 22.6842 28.7685 22.6842 28.6842 22.6842C28.2794 22.5506 28.2794 22.5506 28.2563 22.5114C28.3646 22.3959 29.0321 22.2179 28.9269 22.6027ZM29.1987 22.9135C28.667 23.0705 28.667 23.0705 28.5527 23.0705C28.5184 23.0335 28.4855 22.9973 28.4504 22.9731C28.6431 22.9135 28.9164 22.7264 29.1875 22.7755C29.1875 22.8147 29.1875 22.8615 29.1987 22.9135ZM29.5608 23.5669C29.1964 23.5134 29.0127 23.4342 28.8432 23.3006C29.6131 23.1029 29.5728 23.579 29.5608 23.5669ZM29.2681 23.8869C29.239 23.8567 29.2114 23.8265 29.1927 23.7963C29.4742 23.6945 29.5123 23.6424 29.8774 23.8054C29.7274 23.9691 29.4182 23.8869 29.2681 23.8869ZM29.628 25.0948C30.1 25.0948 30.5301 24.7862 31.0506 25.0684C30.9707 25.5679 31.226 26.044 31.0819 26.6129C30.8699 26.6129 30.7257 26.4462 30.6272 26.3654V26.3036C30.79 26.1632 30.7982 26.1542 31.0506 26.1376C31.0177 26.0666 30.9863 25.9957 30.9535 25.9331C30.6346 25.8712 30.2784 25.8094 30.0597 25.9421C30.4323 26.3134 30.9027 27.1878 31.2761 27.762C31.3985 27.7522 31.521 27.7522 31.6427 27.7522L31.3985 27.5138L31.7405 27.1441C31.7734 27.1516 31.8294 27.1773 31.919 27.2754C31.6748 27.8767 31.8862 28.0005 31.3186 28.38C31.2858 28.6984 31.0819 30.7363 30.79 30.4187C30.2135 29.6777 29.799 28.7942 29.0844 29.6958L28.9956 29.5978C29.2226 29.4129 29.4496 29.2265 29.6863 29.0507C29.5967 28.9708 29.5071 28.9021 29.4257 28.8312L29.6452 28.6712C29.354 27.4006 29.2711 26.3843 28.5079 25.4487C28.2705 25.2706 27.2736 24.5554 27.2168 24.4316C27.3789 24.4316 27.6895 24.5735 27.9322 24.5735C27.4446 22.6849 26.1214 20.856 25.8197 19.1968C26.8114 19.9566 27.4931 22.577 28.6453 23.3293C28.6379 23.3904 28.6297 23.4523 28.6297 23.5224C29.0926 23.8054 29.2151 24.5025 29.628 25.0948ZM31.1887 27.0105C31.1394 26.9653 31.0894 26.9223 31.0506 26.8785C31.0894 26.7374 31.1066 26.754 31.2686 26.8076C31.2686 26.8611 31.2761 26.914 31.2858 26.9653C31.2119 27.003 31.2447 27.0105 31.1887 27.0105ZM30.2135 24.7862C30.0843 24.8119 29.9544 24.8489 29.8319 24.8836C29.799 24.8383 29.7662 24.7938 29.7348 24.7591C29.8244 24.6972 29.9118 24.6353 30.0111 24.5818C30.0753 24.6436 30.141 24.7153 30.2135 24.7862ZM31.6995 22.1175C33.8605 22.3929 33.8351 22.7807 33.7635 25.0948C33.641 26.1715 33.0078 26.7374 32.09 26.8959L31.5949 26.8166C31.5867 26.6574 31.5867 26.5065 31.5867 26.3579C31.7152 26.2945 31.8451 26.2341 31.9758 26.1798C31.9758 25.7837 31.6338 25.8856 31.6338 25.758C31.9758 25.3868 32.4791 26.0749 32.3663 25.3333H31.5778C31.5778 24.9054 31.7966 25.0126 31.748 24.6972C31.3418 24.6716 30.9438 24.6519 30.5458 24.6353C30.5458 23.5149 31.1148 22.9852 31.6995 22.1175ZM35.7027 22.949C35.3547 23.4598 34.9724 25.9067 34.0144 25.9067H33.9905C33.9905 23.1165 34.5177 22.2073 31.8063 21.8353C31.7323 21.7214 31.6838 21.6067 31.6838 21.5554C32.7725 20.8469 36.1261 21.2808 37.3276 21.6965C36.7601 22.1017 36.2224 22.5076 35.7027 22.949ZM37.6771 24.7674C37.6614 24.7674 37.6442 24.7674 37.6285 24.7764C37.4501 24.5388 37.3433 24.335 37.2634 24.1494C37.2709 24.1411 37.2791 24.1411 37.2865 24.1411C37.353 24.2196 37.757 24.5388 37.6771 24.7674ZM38.6434 26.1715V25.9512C38.5463 25.8976 38.4567 25.8448 38.3671 25.8003V25.6947C38.4821 25.66 38.5776 25.7128 38.7404 25.8094C38.6687 26.4545 38.432 26.5065 37.9519 26.7193C37.9198 26.7019 37.8892 26.6853 37.8541 26.6748C38.3798 25.4298 38.0146 26.5141 38.6434 26.1715ZM40.6819 24.7236C40.8119 26.4462 38.6336 26.843 37.9519 28.1861C38.2625 28.1861 39.8949 27.3742 39.9845 27.4708C39.1952 28.1159 38.1557 29.13 37.182 29.2628C37.0595 29.13 36.9371 29.0062 36.8161 28.8832C36.5562 29.0681 35.9402 31.1339 35.9402 31.5218L36.206 31.4961C36.3778 30.888 36.5562 30.2866 36.7347 29.686C36.9371 29.7139 37.1484 29.7388 37.3605 29.7751C37.5143 30.9038 37.3276 32.4151 37.2559 33.6608C37.0999 33.7921 36.3621 34.4198 36.2224 34.3482C36.0514 34.0403 35.8819 33.731 35.7191 33.4216C36.0858 33.0859 36.4838 32.698 36.8325 32.3185C36.3524 31.7964 34.6065 33.943 34.1189 33.4118C34.7529 31.9284 35.8909 28.4773 36.9057 27.0996C36.7504 26.2341 35.5817 25.2804 35.8252 24.8036C36.2471 25.0322 37.0752 25.8358 37.5218 25.8094C37.751 25.325 37.9048 24.9183 38.3596 24.6716C38.4395 24.7153 38.5209 24.7591 38.6098 24.8119L38.6605 25.254C37.913 25.6434 37.6853 26.1376 37.4732 27.0543C38.4081 27.6647 39.057 25.4744 39.1795 25.4744C39.3094 25.589 39.3333 25.6328 39.5768 25.5717C39.6828 25.1476 39.4073 25.0586 39.6828 24.7591L39.9434 24.8119C39.9434 24.9349 39.9434 25.0684 39.9494 25.2005C40.2018 25.0239 40.3086 24.9273 40.4781 24.6353C40.5438 24.6625 40.608 24.6889 40.6819 24.7236ZM36.7601 26.1632C36.8325 26.1632 36.9057 26.1632 36.9781 26.1715C36.9371 25.7663 36.2314 25.1907 35.9887 25.1907C36.2314 25.491 36.5077 25.7837 36.7601 26.1632ZM36.9214 33.3779C36.8728 33.2979 36.8325 33.2187 36.7915 33.1387C36.4338 33.1907 36.4106 33.1907 36.2725 33.5529C36.3113 33.6155 36.3621 33.6857 36.4106 33.7574C36.5562 33.7574 36.8243 33.5446 36.9214 33.3779ZM31.5949 22.7362V22.9754C32.2438 22.9671 32.8928 22.9573 33.5439 22.9573C32.7785 22.4103 32.3663 22.5695 31.5949 22.7362ZM31.5539 23.3994C31.5456 23.4787 31.5367 23.5586 31.5367 23.6371C31.8877 23.6122 31.9758 23.3783 32.1871 23.7699C32.1072 23.8408 32.0243 23.911 31.9422 23.9917C31.9758 24.0529 32.0086 24.1223 32.0415 24.1932C32.3178 24.1932 32.5918 24.2038 32.8771 24.2128V24.0174L32.6814 23.9917C32.5433 23.7601 32.6344 23.6907 32.6889 23.5224C32.7875 23.5149 32.8928 23.5043 32.9995 23.5043V23.3112C32.2595 23.1346 32.1953 23.1784 31.5539 23.3994ZM32.1214 24.3169C32.0654 24.3969 32.0243 24.4422 32.0243 24.5908C32.3335 24.5818 32.6419 24.5735 32.9585 24.5735C32.6732 24.4859 32.3977 24.3969 32.1214 24.3169ZM30.7086 25.1129C30.6443 25.2186 30.5801 25.325 30.5219 25.4381L29.9775 25.4117L29.929 25.5196L30.1 25.6766C30.3919 25.66 30.6847 25.6494 30.9863 25.6434L30.7653 25.1129H30.7086ZM23.457 10.314C22.9216 9.23652 21.986 10.4188 22.9844 10.781C23.295 10.6754 23.3166 10.6497 23.457 10.314ZM23.457 6.64024C23.1651 6.09247 22.7827 6.07512 22.5236 6.64024C22.6521 6.92394 22.6132 6.91338 22.9844 7.05522C23.2465 6.98355 23.3346 6.91338 23.457 6.64024ZM24.4965 8.50313C24.6167 8.77702 24.5936 8.83889 24.9595 8.97017C26.0146 8.68949 24.9259 7.36307 24.4965 8.50313ZM21.3117 8.55595C21.3117 7.4521 19.6711 8.48502 20.8815 8.97017C21.1265 8.94452 21.2146 8.74986 21.3117 8.55595ZM17.4884 22.6397C17.3502 22.5695 17.2845 22.614 17.2188 22.614C17.1621 22.4548 17.1053 22.3039 17.0568 22.1553C16.6334 22.0028 16.2294 22.525 16.2294 22.9573C16.3011 22.8864 16.375 22.8162 16.4489 22.7551C16.5132 22.8079 16.5789 22.8698 16.6431 22.9316C16.6431 23.0116 16.5206 23.1346 16.4564 23.2236C16.5288 23.2576 16.6102 23.2923 16.6916 23.3368C17.0321 23.1429 17.2188 22.9671 17.4884 22.6397ZM15.6193 22.5876C15.9531 22.5876 16.5789 21.9598 16.9754 21.7478C16.9268 21.6603 16.8783 21.5811 16.838 21.4996C16.2623 21.4302 15.8232 22.11 15.6193 22.5876ZM15.6679 24.7236C14.8397 23.4711 14.7501 23.3557 14.7195 21.9862C13.6793 22.8079 15.116 24.6783 15.4326 25.8003C15.4326 25.8094 15.4326 25.8184 15.4401 25.829C15.685 25.7211 15.6679 24.9009 15.6679 24.7236ZM16.5863 29.0243C16.204 29.5804 16.204 31.3988 16.204 32.0891C16.2122 32.0891 16.2212 32.0891 16.2369 32.0959C16.2369 32.6445 15.9285 32.8293 16.5542 33.1387C16.5714 33.1387 16.5945 33.1387 16.6199 33.1477C16.7484 31.8417 16.9268 30.4375 16.8141 29.1828C16.7327 29.13 16.6588 29.0779 16.5863 29.0243ZM17.0978 29.0062C17.115 30.4187 17.0568 31.9382 17.2188 33.4118C17.3159 33.4043 17.4227 33.396 17.5272 33.396C17.4384 31.9284 17.3502 30.4639 17.2674 29.0062H17.0978ZM17.4227 28.9368C17.4227 30.4556 17.7064 32.0258 17.9178 33.5891C17.9917 33.6231 18.0716 33.6683 18.153 33.7121C18.1702 33.7121 18.1843 33.7121 18.2023 33.7212C18.0813 32.0891 17.9663 30.4292 17.5855 28.9021C17.5272 28.9096 17.4712 28.9179 17.4227 28.9368ZM11.3241 26.1376C11.6564 25.7663 11.9812 25.457 11.8842 24.9726C11.5668 25.1393 11.4212 25.7467 11.3166 26.1089C11.3166 26.1195 11.3166 26.1285 11.3241 26.1376ZM10.0323 24.9009C9.69622 24.8104 9.9882 24.6104 9.61035 24.9183C9.66636 24.9877 9.73207 25.0586 9.79703 25.1303C9.84557 25.1303 9.98297 24.953 10.0323 24.9009ZM13.565 40.3707C13.565 40.6174 13.6211 40.7245 13.7764 40.9977C13.8503 40.9448 13.9302 40.9011 14.0116 40.8558C13.987 40.2914 13.9227 40.2296 13.565 40.3707ZM22.7514 40.9622C22.6603 41.0671 22.5707 41.184 22.4811 41.2987C22.5781 41.3855 22.6774 41.4836 22.7827 41.5809C22.8313 41.5809 22.8313 41.5809 23.1882 41.4134C23.2218 41.2889 23.1397 41.1048 23.1397 41.0942L22.7514 40.9622ZM29.0112 41.2089C29.0112 41.4028 29.1822 41.51 29.41 41.5711C29.5153 41.5545 29.6206 41.5462 29.7266 41.5371C29.7505 41.4134 29.743 41.2889 29.743 41.2534C29.4585 41.1123 29.2226 41.0671 29.0112 41.2089ZM36.6533 37.5616C36.7272 37.2719 36.663 37.2787 36.5323 37.1119C36.2157 37.1293 36.1657 37.3768 36.0604 37.3768C36.1515 37.4748 36.2396 37.5805 36.3285 37.6861C36.4338 37.6431 36.5406 37.5986 36.6533 37.5616ZM35.7027 36.503C35.8819 36.116 35.8409 36.1944 35.6624 35.9304H35.289C35.2233 36.0337 35.1666 36.1492 35.1106 36.2646C35.1822 36.3536 35.2562 36.451 35.3376 36.5476C35.46 36.5294 35.5817 36.5121 35.7027 36.503ZM34.1682 35.4007C34.2085 35.2747 34.2511 35.1615 34.2899 35.0468C33.9815 34.5692 34.0218 34.8341 33.5671 35.117C33.641 35.203 33.7134 35.3026 33.7866 35.4007H34.1682ZM32.4462 27.6292C32.1371 28.1317 32.1072 28.0736 32.5351 28.5512C32.6814 28.5331 32.8368 28.5641 32.9898 28.5565C33.169 28.2645 33.2504 28.1053 33.2251 27.762C32.8614 27.5757 32.7957 27.5938 32.4462 27.6292ZM33.1862 27.8322C33.1534 28.1053 33.122 28.22 32.9585 28.4592L32.4962 28.426C32.0803 27.6768 32.5522 27.55 33.1862 27.8322ZM33.0638 27.8933L32.5761 27.762L32.4066 28.0533C32.5522 28.1589 32.7068 28.2645 32.8614 28.38H32.9099C33.0481 28.1589 33.0638 28.1053 33.0638 27.8933ZM32.609 27.8413C32.7471 27.8669 32.8868 27.9046 33.0234 27.9378C33.0234 28.0533 32.9839 28.1498 32.8928 28.2917H32.8539L32.488 28.0269L32.609 27.8413ZM24.4323 36.079C24.3822 36.1944 24.3337 36.3182 24.2926 36.4412C24.4151 36.5294 24.545 36.6268 24.675 36.7241C24.7802 36.7241 24.9923 36.6004 25.1379 36.5476C25.1379 36.4057 24.9027 36.1228 24.8945 36.1047L24.4323 36.079ZM25.9989 39.5226C25.8764 39.5588 25.754 39.6033 25.6412 39.6471C25.6158 39.752 25.6002 39.8584 25.583 39.973C25.6666 40.053 25.7458 40.1413 25.8361 40.2296C26.3895 40.1594 26.1774 39.7965 25.9989 39.5226ZM23.1568 38.0045C22.9455 37.9947 22.7417 37.9872 22.5393 37.9872C22.5139 38.1026 22.5139 38.1803 22.5139 38.3584L22.8059 38.4369C23.115 38.4369 23.2218 38.2769 23.1568 38.0045ZM18.5921 35.5576C18.5921 35.8587 18.6175 35.8934 18.8684 36.1424C18.9736 36.1424 19.185 35.9198 19.2903 35.833C19.2903 35.1351 18.8273 35.4777 18.5921 35.5576ZM17.0978 36.9437H16.6334C16.6513 37.3239 16.6513 37.3239 16.6744 37.413C16.7558 37.4469 16.7558 37.4469 16.9754 37.4749C17.3502 37.4749 17.1621 37.1119 17.0978 36.9437ZM18.9983 39.0737L18.9497 39.2585C18.9908 39.3204 19.0394 39.383 19.0879 39.4509C19.226 39.4509 19.3619 39.4615 19.5016 39.4698C19.4859 39.1966 19.4769 39.1778 19.3799 39.0193L18.9983 39.0737ZM16.6916 40.4325C16.7969 40.422 16.7969 40.422 17.2188 40.2914L16.8141 39.8229C16.6842 39.8229 16.6334 39.9036 16.5363 39.9459V40.3186C16.5863 40.3526 16.6334 40.3903 16.6916 40.4325ZM13.0207 38.3584C12.8011 38.2603 12.7937 38.3139 12.6301 38.3667C12.6145 38.6134 12.7041 38.7198 12.8594 38.9922C13.2328 38.8616 13.1021 38.7288 13.0207 38.3584ZM13.394 37.1655C13.394 37.3685 13.468 37.4575 13.6054 37.6861C13.6793 37.6431 13.7592 37.5986 13.8413 37.5616C13.8413 37.121 13.7249 37.0214 13.394 37.1655ZM12.0141 34.7186C12.0395 35.0204 12.0723 35.0642 12.3053 35.3735C12.3792 35.329 12.4614 35.2853 12.5405 35.2483C12.5405 34.6749 12.4614 34.5443 12.0141 34.7186ZM13.8742 33.8358C14.1736 33.448 14.1654 33.5106 13.9713 33.1907C13.8645 33.1832 13.7674 33.1832 13.6703 33.1832C13.5083 33.5627 13.4837 33.4661 13.7107 33.8358H13.8742ZM17.1031 27.1697C17.2442 27.2346 17.3069 27.424 17.1949 27.762C17.1307 27.7884 17.0725 27.8148 17.0165 27.848C16.6334 27.8065 16.5617 27.584 16.6102 27.2754C16.7267 27.1961 16.8447 27.1516 16.947 27.1441C16.8455 27.1396 16.7275 27.1524 16.5863 27.1961C16.4736 27.5757 16.5789 27.848 16.9836 27.9114C17.4287 27.7922 17.4802 27.2942 17.1031 27.1697ZM16.947 27.1441C17.0045 27.1471 17.0583 27.1546 17.1031 27.1697C17.0583 27.1486 17.0053 27.1403 16.947 27.1441ZM34.8417 41.35C35.6952 41.1908 36.6533 40.6174 37.3605 39.9994C35.9133 39.5226 34.6633 38.9054 33.3475 38.2875C32.5119 37.6069 30.8557 36.4148 29.8476 36.4148C30.4323 38.3214 33.1631 40.8656 34.8417 41.35ZM30.7086 37.2259C30.5226 36.9965 30.2381 36.7679 30.1814 36.6441C30.9692 36.6441 32.4507 37.8483 33.0063 38.2037C33.3998 38.4557 33.4879 38.5153 33.974 38.7537C35.0307 39.0442 35.9491 39.9346 37.1387 40.016C36.6249 39.9813 35.3966 40.9328 34.9015 40.9328C34.3399 40.8701 32.9839 40.2643 32.8853 39.8946C32.0997 38.8254 30.9595 38.6225 30.7086 37.2259ZM13.524 42.5248C12.2978 42.6847 11.0963 43.019 10.0412 43.6113C10.0412 43.6822 10.1308 43.7697 10.2033 43.8769C10.885 43.7343 12.6301 43.0386 13.2641 43.1699C13.8503 43.8407 14.2864 44.2383 15.0518 44.7936C16.6028 45.3512 17.2121 43.6988 18.2993 43.6988C20.6463 46.2513 20.4835 45.1135 23.295 43.9206C23.3264 43.9108 25.3321 45.4116 26.3155 45.5013C27.4117 45.4221 28.0778 44.4239 29.1568 44.4239C31.3418 45.3602 31.6666 45.2267 33.6723 43.9206C34.8499 43.5766 36.2157 44.5657 37.7338 44.0444C37.7167 43.9991 37.701 43.9644 37.6853 43.9297C36.2553 43.7614 34.7932 43.2144 33.4289 43.2589C32.0318 44.4684 31.1305 45.1739 29.5228 44.0346C29.531 44.018 29.5384 44.0082 29.5481 43.9991C29.5384 43.9923 29.531 43.9818 29.531 43.9735C29.4996 43.9735 29.4667 43.9735 29.4414 43.9818C28.832 43.3208 28.7349 43.5856 28.0875 43.9365C26.4611 45.5013 25.3007 45.2365 23.9446 43.5856C22.328 42.3663 21.4117 46.0567 19.1364 43.9553C18.153 42.8432 18.3165 42.9043 17.0165 43.7795C15.1892 44.8042 14.7352 43.9206 13.524 42.5248ZM11.4122 44.9626C13.6382 44.6103 12.7765 44.1334 14.7658 45.6334C16.0987 46.3056 16.6334 45.5459 18.0559 45.2803C19.0879 46.1713 20.3297 46.4279 21.7097 46.3479C23.6512 45.155 22.9941 45.2893 24.7317 46.6308C24.9027 46.7199 25.1611 46.7116 25.3806 46.8685C26.6889 46.8685 27.2564 46.7727 28.3855 45.9684C29.5795 45.3859 30.8467 46.7116 32.5687 45.9963C33.9658 45.3414 34.5901 45.5089 36.1261 45.4749C36.1172 45.3512 36.1089 45.2267 36.1089 45.1135C33.7306 44.6895 33.9905 44.273 32.1625 45.5723C30.5301 46.2951 29.5071 44.7415 28.1503 45.3678C25.4702 47.3552 25.4702 45.4297 23.0351 44.9355C21.3699 45.7488 20.9883 46.0936 19.2163 45.3233C18.8758 45.0856 18.2911 44.5657 18.0156 44.5107C16.0412 45.315 15.7022 45.9601 13.9787 44.5816C13.2328 44.0444 11.575 43.7252 11.4122 44.9626ZM16.0099 46.5697C16.0584 46.6671 16.1069 46.7651 16.1637 46.8685C16.6028 46.8685 16.8626 46.8429 17.3405 46.6754C17.3585 46.6927 17.3741 46.7116 17.3898 46.738C18.6257 46.738 18.8116 47.0466 20.0049 47.3989C20.9712 47.6027 22.0763 46.9923 23.074 46.8957C24.2687 47.3552 24.5861 47.6102 26.0549 47.7785C26.9801 47.752 27.5499 47.6555 28.4258 47.1613C29.41 46.7018 29.7102 47.4352 30.9863 47.2141C31.0252 47.125 31.0662 47.0466 31.1148 46.9658C30.262 46.6671 28.5326 45.8099 27.9793 46.8429C26.957 47.3552 25.7458 47.3831 24.6989 47.1613C24.0731 46.8685 23.6766 46.3479 23.0665 46.3479C22.1256 46.5961 20.4753 47.3906 19.6397 46.6573C17.7311 45.7126 18.0074 45.871 16.0099 46.5697ZM21.467 47.9301C21.4416 48.0086 21.4028 48.1768 21.3288 48.2553C21.6455 48.7774 22.596 48.1685 22.9283 47.9829C23.4473 47.9829 23.9917 48.2825 24.5779 48.5035C24.6346 48.4779 24.6988 48.3255 24.7392 48.247C23.457 47.2231 22.9358 47.6283 21.467 47.9301Z" fill="white"/>
<path d="M15.7196 50.2587C16.0168 50.3545 16.3199 50.4918 16.5387 50.6412L16.2393 51.5866L15.8689 51.4667C15.8428 51.2954 15.8316 51.0962 15.8405 50.9498C15.7509 50.8616 15.5979 50.7604 15.3955 50.6948C15.1431 50.6133 14.8982 50.6443 14.81 50.9227C14.6002 51.5844 16.2445 51.8424 15.904 52.9183C15.7278 53.4744 15.1028 53.7476 14.2388 53.4676C13.9857 53.3861 13.6885 53.2511 13.4794 53.1311L13.7676 52.2204L14.132 52.3389C14.1619 52.5177 14.1753 52.7305 14.1619 52.8701C14.2239 52.9289 14.3769 53.0112 14.5121 53.0549C14.7921 53.1455 14.9997 53.076 15.0766 52.8338C15.2678 52.2302 13.6198 51.9058 13.9535 50.8533C14.1365 50.2745 14.81 49.9644 15.7196 50.2587Z" fill="white"/>
<path d="M13.0281 49.2874L12.878 49.5583C12.7152 49.5726 12.5375 49.5651 12.374 49.5296L11.2479 51.5661C11.3547 51.677 11.4622 51.8369 11.5384 51.9795L11.392 52.2451L9.90527 51.4053L10.0524 51.1398C10.2122 51.1307 10.4033 51.1398 10.5534 51.1745L11.6803 49.1373C11.5653 49.0158 11.4652 48.8664 11.392 48.7185L11.5414 48.4477L13.0281 49.2874Z" fill="white"/>
<path d="M7.31849 46.4918L8.01071 45.7697C8.4356 45.9002 8.87618 46.1507 9.25701 46.5235C10.0187 47.2689 10.0359 48.2188 9.34737 48.9364C8.57823 49.7384 7.53654 49.7294 6.65166 48.8632C6.39404 48.6104 6.13567 48.2981 5.95496 48.0076L6.6427 47.2908L6.92646 47.5677C6.88688 47.7375 6.81818 47.9027 6.74127 48.0438C6.82565 48.2121 6.95633 48.4007 7.14674 48.587C7.62465 49.0556 8.19964 48.9009 8.6656 48.415C9.11439 47.9472 9.21071 47.3165 8.70294 46.8192C8.59317 46.7113 8.47443 46.6125 8.3557 46.5484L7.88153 47.0426C7.94052 47.1527 7.98234 47.3059 8.01519 47.4417L7.81059 47.656L6.77786 46.6449L6.98321 46.4307C7.08924 46.4397 7.20797 46.4525 7.31849 46.4918Z" fill="white"/>
<path d="M7.27743 44.2792L7.01532 44.4415C6.86598 44.3735 6.71514 44.2785 6.58968 44.1676L4.62055 45.3861C4.66087 45.5362 4.6773 45.7286 4.67431 45.8909L4.41818 46.0493L3.52808 44.5825L3.78495 44.4241C3.92907 44.495 4.09186 44.5969 4.20536 44.701L6.1745 43.4817C6.13343 43.3187 6.11849 43.1399 6.12596 42.9747L6.38807 42.8125L7.27743 44.2792Z" fill="white"/>
<path d="M5.72658 41.4957L5.43909 41.6059C5.31289 41.5138 5.17624 41.3946 5.0717 41.2565L2.91214 42.0835C2.92409 42.2382 2.90691 42.4358 2.87256 42.589L2.59105 42.6969L1.98694 41.0883L2.26846 40.9811C2.39465 41.0724 2.54027 41.2143 2.63062 41.332L4.83573 40.4877L4.55122 39.7815C4.41009 39.7913 4.19354 39.7913 4.00536 39.7807L3.86796 39.4133L4.80959 39.0526L5.72658 41.4957Z" fill="white"/>
<path d="M4.43738 37.6572L4.13645 37.7206C4.02593 37.6104 3.90944 37.4708 3.82805 37.3177L1.56694 37.7945C1.55499 37.9485 1.5072 38.1416 1.44895 38.2872L1.15474 38.3499L0.806763 36.665L1.10172 36.6032C1.21224 36.7133 1.33396 36.8763 1.4049 37.0076L3.71305 36.5202L3.5413 35.7785C3.40091 35.7649 3.1866 35.7309 3.00291 35.691L2.92301 35.3062L3.90944 35.0987L4.43738 37.6572Z" fill="white"/>
<path d="M0.612807 30.8199L2.11225 30.6954C3.03073 30.6214 3.55195 31.167 3.62737 32.0452C3.71773 33.1128 3.21069 33.5271 2.47068 33.592L0.860723 33.7323C0.82712 33.8425 0.741246 33.9873 0.674786 34.0771L0.374599 34.1035L0.246161 32.5907L0.545601 32.5643C0.635209 32.676 0.739005 32.805 0.793517 32.937L2.27429 32.808C2.83135 32.7597 3.14498 32.5356 3.09346 31.9366C3.05239 31.4499 2.74399 31.2318 2.24293 31.2816L0.665825 31.4371C0.640436 31.5767 0.548588 31.7276 0.484369 31.8468L0.184929 31.8732L0.0706787 30.5324L0.370119 30.5068C0.451513 30.589 0.56651 30.7105 0.612807 30.8199Z" fill="white"/>
<path d="M3.41108 25.4616L3.10417 25.4555C3.01382 25.3529 2.91824 25.2141 2.89583 25.0949L0.967767 25.3748L0.96702 25.3808L3.3954 26.2945L3.38569 26.8483L0.89384 27.713V27.7191L2.83087 27.9575C2.88837 27.8217 2.97648 27.704 3.0646 27.6044L3.3715 27.6104L3.34835 28.8719L3.04145 28.8667C2.96901 28.7814 2.89135 28.6848 2.83161 28.5822L0.52346 28.1529C0.465215 28.2947 0.383074 28.4298 0.300934 28.5535L0 28.5483L0.0246422 27.215L2.24468 26.4107V26.3987L0.0552582 25.5483L0.0791537 24.2151L0.386808 24.2204C0.457748 24.3471 0.541382 24.4799 0.587679 24.6354L2.91152 24.2317C2.96229 24.1374 3.04369 24.0378 3.13105 23.9623L3.43871 23.9676L3.41108 25.4616Z" fill="white"/>
<path d="M2.26484 21.4951C2.23497 21.7494 2.00348 21.9252 1.74138 21.8935C1.47927 21.8618 1.29558 21.6355 1.32545 21.3812C1.35532 21.1269 1.58755 20.9459 1.84965 20.9776C2.1125 21.0092 2.29471 21.2409 2.26484 21.4951Z" fill="white"/>
<path d="M1.96651 15.6652L3.42786 16.0259C4.32245 16.2492 4.64653 16.9335 4.44267 17.7907C4.19551 18.8327 3.58468 19.0643 2.86184 18.8892L1.29146 18.5082C1.225 18.6018 1.09805 18.7119 1.00695 18.7753L0.714233 18.7044L1.0652 17.2286L1.35792 17.2995C1.40795 17.4338 1.46545 17.5885 1.4759 17.7318L2.92083 18.0827C3.46445 18.2147 3.83185 18.1015 3.97074 17.5168C4.0835 17.0422 3.85948 16.7366 3.36812 16.6234L1.82388 16.2673C1.75593 16.3918 1.62151 16.5057 1.52369 16.5985L1.23097 16.5276L1.54161 15.2193L1.83433 15.2902C1.88586 15.3943 1.9568 15.5468 1.96651 15.6652Z" fill="white"/>
<path d="M4.35914 10.0128L6.90401 11.3211L6.5859 11.9526L3.58627 12.3412L5.36723 13.1425C5.46954 13.0489 5.59947 12.9682 5.74807 12.8777L6.02212 13.0188L5.37246 14.3082L5.09916 14.1679C5.08348 13.9928 5.07377 13.8208 5.09468 13.6842L3.05535 12.6023C2.94184 12.7177 2.79548 12.8166 2.65211 12.9101L2.38403 12.772L2.98814 11.5724L5.66443 11.2245L4.10824 10.5115C4.01117 10.6089 3.87825 10.6805 3.74234 10.7447L3.47426 10.6066L4.04328 9.47634L4.3121 9.61441C4.33749 9.75475 4.36362 9.88151 4.35914 10.0128Z" fill="white"/>
<path d="M8.12978 9.60229L7.90277 9.3933C7.92592 9.22957 7.97446 9.05603 8.04465 8.90362L6.33836 7.33197C6.20694 7.4127 6.02847 7.48212 5.87315 7.52437L5.65137 7.3199L6.79835 6.04779L7.02088 6.25302C6.99325 6.41222 6.94172 6.59859 6.87377 6.73817L8.5808 8.30982C8.72418 8.22456 8.8907 8.15967 9.04975 8.12119L9.27676 8.33019L8.12978 9.60229Z" fill="white"/>
<path d="M11.7714 3.00167L12.3142 6.06197L11.6952 6.44299L9.24292 4.55219C9.14509 4.56124 9.0301 4.53031 8.91585 4.51371L8.75903 4.25416L10.0218 3.47626L10.1786 3.73581C10.1248 3.86332 10.0643 3.98027 9.98069 4.10476L11.7042 5.46364L11.7146 5.4576L11.2128 3.34572C11.0903 3.37062 10.9231 3.35704 10.7976 3.35478L10.6408 3.09523L11.7168 2.43201L11.8737 2.69156C11.849 2.78663 11.8266 2.90962 11.7714 3.00167Z" fill="white"/>
<path d="M15.0658 4.71204L14.9814 4.41325C15.0845 4.30007 15.2122 4.16652 15.3578 4.07297L14.7275 1.83509C14.5722 1.82829 14.3751 1.78151 14.2302 1.7453L14.1481 1.4533L16.5959 0.749344L16.8281 1.57252L16.46 1.6789C16.3689 1.59515 16.2352 1.44651 16.1732 1.3356L15.4705 1.53705L15.7379 2.48623L16.3158 2.32024C16.3226 2.2146 16.3696 2.09841 16.4025 2.01768L16.7079 1.93015L16.9707 2.86122L16.6646 2.94874C16.5989 2.89065 16.4839 2.80765 16.4301 2.72616L15.8521 2.89216L16.1426 3.92508L16.8453 3.72287C16.8408 3.57574 16.8751 3.39164 16.9095 3.25281L17.2836 3.14492L17.5255 4.00506L15.0658 4.71204Z" fill="white"/>
<path d="M22.5555 3.37007L22.5122 3.00639C22.0657 3.10825 22.0112 1.86708 21.4339 1.83087C21.8693 1.66789 22.1135 1.34043 22.0769 0.926207C22.0201 0.271291 21.5385 0.0396565 20.6879 0.115108C20.2182 0.156606 19.6627 0.230548 19.5275 0.24262L19.1108 0.279591L19.137 0.582904C19.2789 0.65081 19.4454 0.723243 19.6074 0.758705L19.8098 3.08411C19.644 3.14824 19.4872 3.24935 19.3774 3.34668L19.4036 3.65527L20.9889 3.51493L20.962 3.20634C20.856 3.1407 20.7178 3.05317 20.5849 3.01545L20.5095 2.14927L20.6969 2.13267C21.2726 2.08212 21.2629 3.54059 22.0261 3.47268C22.2083 3.45684 22.4129 3.42666 22.5555 3.37007ZM20.7395 1.66186L20.4691 1.686L20.3788 0.647038C20.4363 0.629684 20.5416 0.61384 20.5886 0.610067C21.0292 0.570832 21.257 0.743615 21.2876 1.09597C21.3122 1.38042 21.1621 1.62413 20.7395 1.66186Z" fill="white"/>
<path d="M25.3407 3.49113C25.0285 3.4768 24.7007 3.42398 24.4513 3.33797L24.4968 2.34578L24.8851 2.36389C24.9546 2.52234 25.0166 2.71172 25.0457 2.85583C25.1547 2.91695 25.3287 2.97505 25.5408 2.98486C25.8059 2.99693 26.0344 2.90261 26.0478 2.61062C26.0799 1.91647 24.4259 2.09981 24.4774 0.971819C24.5051 0.388582 25.0375 -0.0399802 25.944 0.00302693C26.2091 0.0150991 26.5309 0.0671607 26.7639 0.128276L26.7199 1.08273L26.3375 1.06462C26.2621 0.900141 26.1949 0.697932 26.1718 0.559856C26.0971 0.519113 25.9276 0.480633 25.7865 0.473842C25.4922 0.460261 25.31 0.581737 25.2981 0.836007C25.269 1.46829 26.9431 1.34832 26.8924 2.45142C26.8647 3.05955 26.2942 3.53565 25.3407 3.49113Z" fill="white"/>
<path d="M28.6442 3.71279L28.6994 3.40721C28.8488 3.34006 29.0198 3.28951 29.1848 3.26989L29.5977 0.973159C29.4603 0.903744 29.308 0.78755 29.19 0.678146L29.2438 0.378605L30.9187 0.686445L30.865 0.985232C30.7164 1.04635 30.5327 1.10143 30.3803 1.11727L29.9674 3.41325C30.1152 3.49096 30.2571 3.59886 30.3743 3.71505L30.3191 4.02063L28.6442 3.71279Z" fill="white"/>
<path d="M35.4692 3.25244C35.4595 3.06834 35.4483 2.82313 35.4707 2.65185L34.945 2.44059L34.0713 4.66111C34.2005 4.75317 34.3192 4.90105 34.417 5.04063L34.3035 5.32886L32.7152 4.69054L32.8287 4.40232C32.9997 4.37063 33.1819 4.34347 33.338 4.3661L34.2117 2.14557L33.686 1.93507C33.5941 2.07163 33.4067 2.25649 33.279 2.37268L32.9392 2.23612L33.3141 1.28468L36.189 2.43983L35.8142 3.39127L35.4692 3.25244Z" fill="white"/>
<path d="M39.9133 4.88346L39.2398 4.35228L36.6337 5.97146C36.5291 5.95184 36.3955 5.94128 36.2805 5.94505L36.0916 6.18952L37.0713 6.96289L37.2602 6.71843C37.2266 6.59695 37.184 6.46868 37.1123 6.34947L37.4626 6.13745L38.4146 6.88895L38.2959 7.28431C38.1682 7.24583 38.0256 7.22772 37.9009 7.22395L37.712 7.46841L38.8776 8.38892L39.0665 8.14445C39.0524 8.04637 39.015 7.93017 38.9739 7.81926L39.9133 4.88346ZM39.0471 5.06605C38.9926 5.20412 38.9344 5.34673 38.8866 5.50593L38.5767 6.46642L37.8247 5.87262L38.6962 5.31655C38.8291 5.23204 38.9433 5.1415 39.0426 5.06228L39.0471 5.06605Z" fill="white"/>
<path d="M43.1998 10.2716C43.2924 10.1124 43.4171 9.90192 43.5299 9.77215L43.2073 9.30284L41.2643 10.6647C41.321 10.8126 41.3397 11.0028 41.3442 11.1733L41.0918 11.3506L40.118 9.93211L40.3704 9.75479C40.5302 9.82421 40.6968 9.90343 40.814 10.0091L42.757 8.64717L42.4352 8.17787C42.2836 8.24049 42.0259 8.29029 41.8564 8.31519L41.6481 8.01187L42.4807 7.42864L44.2437 9.99624L43.4111 10.5795L43.1998 10.2716Z" fill="white"/>
<path d="M42.2393 13.5514L42.5245 13.4359C42.6604 13.5287 42.7933 13.648 42.8979 13.7785L45.0425 12.9123C45.0276 12.7576 45.044 12.5652 45.0731 12.406L45.3524 12.2929L45.9849 13.8902L45.7056 14.0033C45.5757 13.9083 45.4323 13.78 45.3375 13.6585L43.1936 14.5247C43.207 14.6922 43.1921 14.8718 43.157 15.0332L42.8717 15.1487L42.2393 13.5514Z" fill="white"/>
<path d="M43.585 17.906C43.5156 17.5981 43.4783 17.2654 43.4947 16.999L44.4527 16.7787L44.5386 17.162C44.4065 17.2714 44.2422 17.3823 44.1122 17.4487C44.0831 17.5717 44.0742 17.7566 44.1212 17.9656C44.1802 18.2274 44.3318 18.4243 44.6133 18.3594C45.2839 18.2055 44.6678 16.6437 45.758 16.3932C46.3211 16.2641 46.8722 16.6686 47.0738 17.5626C47.132 17.8237 47.1679 18.1512 47.1724 18.3941L46.2501 18.6061L46.165 18.2289C46.3024 18.1119 46.4771 17.9927 46.6026 17.9331C46.6213 17.8494 46.6138 17.6743 46.5824 17.5347C46.5167 17.245 46.3517 17.0994 46.106 17.156C45.4952 17.2963 46.0567 18.8951 44.9904 19.1396C44.4035 19.2746 43.7964 18.8461 43.585 17.906Z" fill="white"/>
<path d="M45.7421 21.4956C45.7122 21.2413 45.8959 21.0149 46.158 20.9832C46.4201 20.9516 46.6508 21.1274 46.6815 21.3816C46.7113 21.6359 46.5284 21.8683 46.2663 21.9C46.0042 21.9317 45.7719 21.7498 45.7421 21.4956Z" fill="white"/>
<path d="M44.5227 23.9001L44.8296 23.8873C44.9207 24.014 45.0133 24.171 45.0693 24.3355L47.3767 24.2366C47.4133 24.0857 47.4917 23.9039 47.5724 23.7696L47.8733 23.7568L47.945 25.4755L47.6441 25.4884C47.5529 25.3616 47.4596 25.1805 47.4103 25.0394L45.0544 25.1405L45.1044 25.9011C45.2411 25.9373 45.4472 26.006 45.6219 26.0754L45.6383 26.4685L44.6317 26.5115L44.5227 23.9001Z" fill="white"/>
<path d="M47.3497 31.3956L45.8466 31.3254C44.9266 31.2809 44.4785 30.672 44.5151 29.7915C44.5599 28.7209 45.1148 28.3745 45.8578 28.4062L47.4715 28.4749C47.5185 28.37 47.6223 28.2372 47.7 28.1572L48.0001 28.1701L47.9374 29.6866L47.6365 29.6738C47.5618 29.5516 47.4752 29.4105 47.4378 29.2724L45.9533 29.209C45.3948 29.1849 45.055 29.3675 45.0304 29.9681C45.0102 30.4562 45.288 30.712 45.792 30.7279L47.3751 30.7769C47.4177 30.6418 47.5282 30.5038 47.6066 30.3936L47.9075 30.4064L47.8515 31.751L47.5506 31.7381C47.4804 31.6453 47.3818 31.5103 47.3497 31.3956Z" fill="white"/>
<path d="M47.6402 33.8589L47.3438 33.8084C47.2347 33.9351 47.122 34.0913 47.0563 34.2249L44.778 33.8393C44.7563 33.6726 44.7041 33.5005 44.6354 33.3504L44.3322 33.2991L44.256 33.7571C44.1814 34.209 44.1022 34.6119 44.0552 34.8941C43.8632 36.0508 44.3434 36.5729 44.8527 36.6589C45.2156 36.7208 45.6031 36.5261 45.7495 36.0199C45.7853 36.4424 46.0407 36.6672 46.3499 36.7193C46.895 36.8113 47.2355 36.4469 47.3811 35.5717C47.4528 35.1371 47.5185 34.5931 47.5663 34.3056L47.6402 33.8589ZM45.6188 34.7787L45.5703 35.0722C45.4859 35.583 45.2626 35.8773 44.9229 35.8199C44.6384 35.7716 44.4218 35.5355 44.4972 35.0835C44.5308 34.8783 44.5824 34.7176 44.6376 34.6119L45.6188 34.7787ZM46.9943 35.0111C46.9868 35.131 46.9697 35.2367 46.945 35.383C46.8718 35.8237 46.6336 35.9459 46.3551 35.8991C46.0766 35.8516 45.8959 35.6645 45.9773 35.171C45.9982 35.048 46.0161 34.9364 46.037 34.8496L46.9943 35.0111Z" fill="white"/>
<path d="M43.4207 38.0141L43.712 38.1137C43.7456 38.2638 43.7822 38.4457 43.7754 38.6192L45.9574 39.3654C46.0515 39.2402 46.2008 39.1028 46.3128 39.0032L46.5973 39.1006L45.7812 41.5361L44.9784 41.2615L45.1009 40.8948C45.2211 40.8669 45.4183 40.8397 45.5437 40.8518L45.7782 40.1524L44.853 39.8362L44.6603 40.4112C44.7417 40.4768 44.8104 40.5817 44.8575 40.6549L44.7552 40.9589L43.8479 40.6488L43.9502 40.344C44.0346 40.3229 44.1682 40.2746 44.2646 40.2761L44.4572 39.7012L43.4506 39.3563L43.2161 40.0558C43.3386 40.1358 43.4693 40.2678 43.5634 40.3757L43.4387 40.7477L42.6008 40.461L43.4207 38.0141Z" fill="white"/>
<path d="M41.0097 43.4519C41.5944 42.4733 42.3852 42.2674 43.2685 42.8068C44.3043 43.4384 44.4745 44.426 43.9354 45.3284C43.7345 45.6642 43.5307 45.9086 43.3529 46.0859L42.4068 45.508L42.6137 45.1617C42.8041 45.1798 43.0109 45.2296 43.1677 45.2907C43.2783 45.2265 43.3985 45.0975 43.4896 44.9451C43.7547 44.5015 43.5643 44.0163 42.928 43.6285C42.3232 43.2588 41.7982 43.3697 41.4047 44.0269C41.28 44.2359 41.1792 44.5015 41.1493 44.7542L40.6901 44.5988C40.6774 44.2366 40.7872 43.8239 41.0097 43.4519Z" fill="white"/>
<path d="M39.4978 45.6791L39.7084 45.9047C39.6688 46.0534 39.6166 46.2314 39.5299 46.3824L41.1108 48.0747C41.2519 48.0091 41.4475 47.9585 41.5924 47.9231L41.7993 48.1441L39.9474 49.9089L39.3657 49.2857L39.6442 49.0201C39.7629 49.0518 39.9496 49.122 40.0556 49.1914L40.5866 48.6851L39.9167 47.9676L39.4792 48.3841C39.521 48.4806 39.5329 48.6059 39.5404 48.6927L39.3089 48.913L38.6518 48.209L38.8833 47.988C38.9676 48.0098 39.108 48.0294 39.1932 48.077L39.63 47.6605L38.9012 46.8796L38.3695 47.3859C38.4404 47.5141 38.4942 47.6929 38.5271 47.8325L38.2441 48.1019L37.637 47.4522L39.4978 45.6791Z" fill="white"/>
<path d="M34.6182 52.4828L33.3629 49.8911L33.9924 49.5795L36.6209 51.0915L35.6748 49.369C35.5367 49.3825 35.3858 49.3674 35.2126 49.3493L35.0774 49.0709L36.364 48.4341L36.4984 48.7133C36.4073 48.8619 36.3125 49.0053 36.2147 49.1019L37.2011 51.2054C37.3602 51.182 37.5357 51.1919 37.7059 51.2047L37.8381 51.4771L36.6418 52.0693L34.2963 50.7218L35.1155 52.2368C35.2507 52.218 35.4 52.2414 35.5464 52.2723L35.6785 52.5454L34.551 53.103L34.4188 52.8299C34.4815 52.7024 34.5368 52.5854 34.6182 52.4828Z" fill="white"/>
<path d="M30.592 50.6363C30.8967 50.5684 31.2267 50.5322 31.4903 50.5495L31.7032 51.5191L31.3231 51.6036C31.2155 51.4693 31.1065 51.3025 31.0416 51.1713C30.9198 51.1411 30.7369 51.1313 30.53 51.178C30.2709 51.2361 30.0753 51.3878 30.1373 51.6722C30.2859 52.3513 31.8353 51.7371 32.0773 52.8395C32.202 53.4091 31.7987 53.9637 30.9124 54.1621C30.654 54.2195 30.3292 54.2542 30.0887 54.2572L29.8841 53.3246L30.2582 53.2409C30.3732 53.3805 30.4905 53.557 30.5487 53.6838C30.6309 53.7041 30.8048 53.6966 30.943 53.6657C31.2305 53.6015 31.3746 53.4355 31.3201 53.1873C31.1849 52.5694 29.5996 53.1277 29.3629 52.0495C29.233 51.4557 29.6601 50.8453 30.592 50.6363Z" fill="white"/>
<path d="M27.5494 51.2318L27.574 51.5411C27.4463 51.6453 27.294 51.7381 27.1394 51.8007L27.3246 54.1268C27.4747 54.1585 27.6524 54.231 27.7943 54.3064L27.8182 54.6097L26.1209 54.7478L26.097 54.4445C26.2247 54.3472 26.3882 54.2468 26.5316 54.191L26.3464 51.8648C26.1843 51.8286 26.0186 51.7607 25.8767 51.6792L25.8521 51.3699L27.5494 51.2318Z" fill="white"/>
<path d="M23.1817 51.3376C23.4939 51.3452 23.8232 51.3904 24.0741 51.4712L24.0502 52.4641L23.6619 52.4543C23.5887 52.2973 23.5222 52.1095 23.4909 51.9661C23.3803 51.9073 23.2049 51.8537 22.9928 51.8484C22.7277 51.8416 22.5014 51.9412 22.494 52.2332C22.4775 52.9281 24.1271 52.7078 24.0995 53.8373C24.086 54.4198 23.5626 54.8604 22.6553 54.8378C22.3902 54.8318 22.0668 54.7865 21.8324 54.7306L21.8555 53.7754L22.2386 53.7845C22.317 53.9482 22.3887 54.1482 22.4156 54.2855C22.491 54.3247 22.6605 54.3602 22.8024 54.364C23.0966 54.3707 23.2766 54.2447 23.2825 53.9905C23.2982 53.3582 21.6263 53.5151 21.6532 52.4113C21.6673 51.8031 22.2274 51.3142 23.1817 51.3376Z" fill="white"/>
<path d="M18.9687 52.5431C19.2196 52.5793 19.3876 52.817 19.3503 53.0811C19.3122 53.3459 19.0844 53.5255 18.8335 53.4893C18.5826 53.4523 18.4086 53.2139 18.446 52.9498C18.484 52.6857 18.7178 52.5061 18.9687 52.5431Z" fill="white"/>
</svg>
